<?xml version="1.0" encoding="UTF-8"?>
<svg id="_圖層_2" data-name="圖層 2" xmlns="http://www.w3.org/2000/svg" viewBox="0 0 102.22 38.32">
  <defs>
    <style>
      .cls-1 {
        fill: #68583f;
      }

      .cls-2 {
        fill: #040000;
        stroke: #040000;
        stroke-miterlimit: 10;
        stroke-width: .1px;
      }
    </style>
  </defs>
  <g id="_生活" data-name="生活">
    <g id="_大標" data-name="大標">
      <g>
        <path class="cls-2" d="M33.71,7.26h-1.17v-.6c-.69.17-3.8.71-4.41.85-.08.11-.21.34-.32.34-.12,0-.22-.23-.25-.34l-.28-.89c.34.03,1.28-.06,1.41-.08V1.5h-1.12v-.55h6.75v.55h-.61v5.76ZM27.37,11.21c.55-.48,2.32-2.01,2.72-3.63l1,.58c.11.06.28.17.28.26,0,.14-.23.25-.46.35-1.03,1.15-1.55,1.64-2.89,2.81l-.65-.38ZM27.75,13.85c2.27-1.31,3.53-3.16,3.84-3.92l1,.54c.09.05.23.12.23.2,0,.12-.11.15-.4.23-.86,1.06-2.73,2.61-4.07,3.32l-.6-.37ZM32.54,1.5h-2.73v1.28h2.73v-1.28ZM32.54,3.32h-2.73v1.23h2.73v-1.23ZM32.54,5.09h-2.73v1.34c2.03-.25,2.26-.28,2.73-.35v-.98ZM31.38,8.93c3.01-.46,5.04-1.28,5.79-2.14l.81.72c.14.12.22.2.22.26,0,.14-.22.15-.49.2-.41.17-1.51.6-2.83.94v.18c.63,1,1.06,1.49,1.26,1.71.09-.05,1.89-.98,3-2.23l.94.63c.2.14.23.18.23.25,0,.18-.31.23-.54.26-1.41.89-2.61,1.44-3.09,1.66,1.61,1.57,3.41,1.95,4.13,2.12l-.46.54c-2.86-.83-4.15-1.83-5.47-3.35v3.66h-1.12v-5.18c-.85.17-1.52.26-2.03.32l-.35-.55ZM34.03,6.63c.57-.2,1.61-.57,2.89-1.66-1-1.12-1.4-2.18-1.54-2.6l1.03-.6c.11.4.38,1.54,1.15,2.57.77-.86,1.35-1.78,1.72-2.84h-4.36v-.55h5.96c-.45,1.38-1.43,2.84-2.77,4.03.68.68,2,1.57,3.32,1.87l-.35.54c-1.71-.45-2.93-1.26-3.63-1.87-.98.74-1.83,1.17-2.98,1.58l-.45-.46Z"/>
        <path class="cls-2" d="M52,5.15v7.07h-2.92v1.37h-1.15v-6.18c-.38.57-.6.88-1.34,1.74l-.46-.32c2.04-2.52,2.58-5.13,2.8-7.36h-2.15v-.55h5.72v.55h-2.32c-.18,1.46-.6,2.63-1.03,3.69h2.86ZM50.83,5.71h-1.75v5.95h1.75v-5.95ZM52,13.87c1.17-.68,2.18-1.48,2.72-2.81l1.01.75c.12.09.17.12.17.18,0,.08-.03.08-.34.12-.89,1.04-2.27,1.86-2.97,2.15l-.6-.4ZM59.8,3.14v7.71h-6.39V3.14h2.12c.2-.49.4-1.14.48-1.67h-3.12v-.55h7.51v.55h-3.15c-.28.58-.75,1.34-.98,1.67h3.53ZM58.6,5.34v-1.66h-4v1.66h4ZM54.61,5.89v1.89h4v-1.89h-4ZM54.61,8.33v1.98h4v-1.98h-4ZM58.14,11.15c.65,1.21,1.67,2.23,2.26,2.66l-.52.43c-.78-.48-1.87-1.46-2.63-2.37l.89-.72Z"/>
        <path class="cls-2" d="M69.04,14.4h-1.26V5.26c-.86,1.15-1.57,1.81-1.97,2.18l-.61-.35c2.06-2.04,3.73-5.7,4.03-7.02l1.21.46c.12.05.15.05.15.11,0,.12-.22.32-.29.38-.31.6-.69,1.31-1.26,2.29v11.09ZM79.9,12.48v.55h-9.83v-.55h9.83ZM78.9,2.4v.55h-7.84v-.55h7.84Z"/>
        <path class="cls-2" d="M92.39,6.81h5.12v.55h-5.12v5.76h6.51v.55h-13.95v-.55h6.19v-5.76h-4.79v-.55h4.79V1.47h-5.55v-.54h12.66v.54h-5.87v5.35ZM96.28,11.58c-.54-1.03-1.29-1.95-2.23-2.9l.49-.61c.61.46,2.06,1.68,2.72,2.46l-.98,1.06Z"/>
      </g>
      <g>
        <path class="cls-1" d="M6.25,28.35c-.88,3.13-3.03,6.72-5.98,8.35-.17.09-.42-.12-.17-.35,2.11-2.01,4-5.51,4.64-8.04H.69c-.26,0-.36-.35-.59-.95h4.26c.45,0,.59-.05.88-.31l.68.55c.43.36.4.48.33.74ZM15.34,35.52c-.26.16-.54.35-.76.45-.47.22-.68.28-1.18-.1-1.13-.88-2.3-2.25-3.2-3.55-.71-1-1.26-2.04-1.66-3.07v7.88c0,.88-.97,1.63-1.68.88-.76-.8-1.61-1.04-2.08-1.21-.17-.07-.16-.29.03-.29.42,0,2.1.07,2.18.03.09-.03.09-.07.09-.14v-13.85l1.18.26c.17.03.28.17.28.26v4.12c.23.66.48,1.26.76,1.84,1.32-.97,2.79-2.39,3.64-3.64l.81.71c.31.28.38.38.14.59-1,.85-2.96,2.11-4.35,2.79.33.61.71,1.16,1.14,1.7,1.33,1.63,2.55,2.81,4.68,4.09.17.1.1.19-.02.26Z"/>
        <path class="cls-1" d="M22.12,25.84c-1.3,4.64-2.41,7.01-2.13,8.11.28,1.11.45,1.89.45,2.49,0,.97-.45,1.7-1.06,1.71-.55.02-.93-.47-.76-1.09.23-.83.73-1.89.69-2.79-.02-.57-.74-.81-1.77-.88-.26-.02-.29-.35-.02-.36,1.04-.07,1.3-.21,1.59-.73.73-1.26,1.96-4.69,2.62-6.55.1-.31.47-.21.38.09ZM17.41,26.91c-.12-.21-.02-.4.23-.28.8.4,1.39.68,1.82,1.16.87.97-.17,2.29-.87,1.21-.47-.73-.83-1.51-1.18-2.1ZM18.66,23.26c-.14-.22-.05-.43.23-.31.74.31,1.4.61,1.82,1.02.87.87-.07,2.34-.85,1.18-.47-.69-.9-1.44-1.2-1.89ZM27.82,25.3v1.82h2.01c.36,0,.55-.1.83-.4l1.06.35c.76.24.28.64.28,1.02v9.14c0,.81-.76,1.32-1.4.85-.45-.33-1.14-.71-1.7-.94-.17-.07-.23-.28.07-.26.57.03,1.42.02,1.61-.02.09-.02.09-.12.09-.21v-8.64h-6.89v9.35c0,.69-.59,1.02-1.33.87v-11.57l1.02.19c.24.05.29.14.31.26h2.67v-1.82h-3.91c-.28,0-.4-.16-.73-.9h4.64v-1.8l1.07.21c.26.05.31.12.31.26v1.33h3.45c.33,0,.52-.17.83-.52.38.36.69.57.69.85,0,.38-.38.57-.99.57h-3.98ZM27.77,34.22v2.68c0,.62-.57.88-1.32.76v-3.45h-1.87c-.26,0-.35-.23-.64-.88h2.51v-1.54h-1.75c-.26,0-.35-.21-.64-.88h3.27c.31-.8.78-2.15.92-2.82l.85.47c.35.19.36.26.19.52-.35.5-.94,1.3-1.37,1.84h.99c.33,0,.48-.14.76-.47.33.33.64.54.64.83,0,.35-.35.52-.9.52h-1.65v1.54h1.19c.33,0,.5-.16.8-.47.31.31.62.54.62.83,0,.36-.35.52-.92.52h-1.7ZM25.52,30.36c-.28-.59-.54-1.37-.73-1.82-.09-.19.07-.36.28-.23.57.36,1.21.78,1.44,1.23.48.95-.59,1.66-.99.81Z"/>
        <path class="cls-1" d="M50.17,36.82c0,.42-.38.62-1.07.62h-13.68c-.35,0-.45-.21-.81-1.04h7.2v-4.04h-3.95c-.33,0-.42-.23-.78-1h4.73v-3.69h-3.95c-.83,1.39-1.78,2.68-2.65,3.5-.21.19-.38-.09-.29-.24,1.23-2.11,2.41-4.66,3.17-7.24l1.02.5c.31.16.4.24.26.55-.26.62-.59,1.28-.95,1.94h3.39v-4l1.18.24c.17.03.29.12.29.26v3.5h3.79c.35,0,.54-.19.85-.55.4.36.73.59.73.92,0,.45-.38.62-1.02.62h-4.35v3.69h2.96c.31,0,.52-.14.83-.52.43.38.73.64.73.92,0,.36-.36.61-1,.61h-3.52v4.04h5.23c.33,0,.57-.17.9-.57.43.43.76.73.76.99Z"/>
        <path class="cls-1" d="M54.65,33.8c.28,1.11.48,2.04.47,2.65-.03.97-.52,1.68-1.13,1.7-.55.02-.95-.45-.76-1.07.26-.83.87-2.04.76-2.94-.07-.57-.87-.81-1.84-.88-.26-.02-.29-.35-.02-.36,1.06-.07,1.3-.21,1.61-.74.76-1.3,2.23-4.8,2.94-6.65.12-.31.47-.21.38.09-1.44,4.66-2.72,7.07-2.42,8.23ZM52.05,26.95c-.12-.21-.02-.38.23-.28.8.36,1.39.68,1.82,1.19.83.99-.17,2.29-.87,1.21-.47-.73-.85-1.54-1.18-2.13ZM53.56,23.27c-.16-.23-.05-.43.23-.31.78.35,1.47.62,1.92,1.07.87.87-.05,2.29-.87,1.18-.52-.71-.97-1.49-1.28-1.94ZM67.36,28.14c0,.4-.33.59-.93.59h-3.93v2.77h1.07c.33,0,.5-.12.76-.4l1.21.4c.69.23.21.59.21.95v4.81c0,.78-.66,1-1.42.92v-1.49h-5v.38c0,.9-.66,1.06-1.42.97v-6.98l1.13.23c.17.03.28.1.29.21h1.73v-2.77h-3.6c-.31,0-.4-.16-.74-.92h4.35v-3.03c-1.35.16-2.65.26-3.43.23-.16,0-.33-.31-.02-.36,2.08-.38,5.66-1.16,7.27-1.8l.57.59c.36.36.29.54.03.61-.61.17-1.75.38-3,.55v3.22h3.39c.29,0,.47-.16.8-.54.38.42.68.62.68.87ZM59.33,32.42v3.33h5v-3.33h-5Z"/>
        <path class="cls-1" d="M71.1,27.47v-1.96h-1.02c-.26,0-.38-.14-.68-.87h1.7v-2.18l.97.21c.23.05.33.14.33.26v1.71h1.49v-2.11l1,.21c.19.03.29.12.29.24v1.66h.68c.28,0,.43-.16.73-.48.43.4.62.55.62.81,0,.38-.29.54-.87.54h-1.16v1.96h.95c.29,0,.45-.17.74-.5.4.4.62.54.62.81,0,.38-.35.55-.88.55h-6.84c-.29,0-.4-.16-.69-.87h2.01ZM76,30.53v6.68c0,.71-.69,1.26-1.39.68-.38-.33-1.18-.66-1.58-.83-.24-.1-.19-.26.03-.26.48,0,1.39.07,1.52-.03.07-.05.07-.12.07-.21v-1.82h-3.03c-.02.05-.02.1-.03.16-.33,1.4-.99,2.65-2.08,3.33-.21.14-.35-.09-.24-.24.55-.87.71-1.45.92-2.39.31-1.45.28-3.36.28-6.44l1.06.23c.19.03.29.12.29.21v.02h2.11c.29,0,.48-.1.73-.38l1.09.35c.71.23.24.71.24.97ZM74.66,33.86v-1.26h-2.86l-.05,1.26h2.91ZM71.82,30.46v1.26h2.84v-1.26h-2.84ZM72.4,27.47h1.49v-1.96h-1.49v1.96ZM84.81,37.42l-.5.26c-.68.35-.74.36-1.35-.14-.73-.61-1.61-1.49-2.37-2.63-1.11,1.47-2.56,2.67-4.33,3.2-.23.07-.36-.17-.14-.33,1.39-.92,2.72-1.92,3.86-3.91-.07-.12-.12-.24-.19-.38-.62-1.35-1.07-3.01-1.32-4.95-.52,1.02-1.13,2.04-1.58,2.53-.19.19-.38,0-.28-.21.54-1.07,1.33-3.34,1.66-4.52.33-1.25.66-2.53.85-3.72l.9.36c.35.14.4.26.35.43-.1.45-.4,1.47-.78,2.53h3.72c.28,0,.43-.16.74-.5.36.35.66.55.66.81,0,.43-.33.59-.92.59h-.92c-.17,2.58-.54,5.11-1.65,7.07.8,1.21,1.77,2.13,3.52,3.27.14.09.17.17.05.24ZM80.55,32.71c.62-1.58.87-3.64,1-5.87h-2.3c-.03.1-.09.23-.16.35.26,2.01.66,3.95,1.46,5.52Z"/>
        <path class="cls-1" d="M86.68,27.08c1.16-1.16,2.49-2.93,3.22-4.68l.92.48c.28.16.35.24.12.57-.14.21-.35.47-.59.76h2.96c.29,0,.43-.12.73-.43.36.31.61.57.61.78,0,.33-.29.52-.87.52h-2.48c.4.26.69.54.85.81.5.9-.47,1.96-1.13.68-.23-.45-.43-1.06-.61-1.49h-.83c-.75.81-1.71,1.7-2.7,2.27-.23.12-.36-.12-.21-.28ZM102.09,36.64c-1.04.76-1.02.9-1.96.43-1.02-.5-2.06-1.14-3.03-1.94-.76-.62-1.47-1.37-2.03-2.22v4.38c0,.83-.71,1.06-1.4.92v-4.8c-.57.71-1.42,1.49-2.55,2.3-1.13.83-2.56,1.66-4.12,2.13-.19.05-.36-.21-.14-.33,1.45-.8,2.6-1.63,3.78-2.63,1.09-.92,2.49-2.48,3.03-3.45v-.61h-3.07v2.62c0,.64-.74.9-1.37.74v-4.68l1.13.21c.17.03.24.16.24.24h3.07v-1.18h-5.92c-.26,0-.38-.23-.68-.9h6.6v-1.61l.54.1c.9-1.32,1.54-2.53,2.11-4.05l.95.48c.28.12.35.24.12.55-.14.19-.33.47-.57.78h3.52c.29,0,.43-.12.74-.43.33.31.61.57.61.8,0,.31-.33.5-.88.5h-2.75c.57.35.95.62,1.12.94.59,1-.48,1.96-1.09.71-.24-.5-.59-1.21-.81-1.65h-1.13c-.43.52-.92,1.06-1.44,1.47l.07.02c.19.03.29.19.29.23v1.16h5.02c.28,0,.47-.14.78-.48.36.35.66.54.66.81,0,.36-.36.57-.93.57h-5.53v1.18h2.49c.33,0,.54-.16.75-.42l1.11.35c.74.23.26.75.26,1.04v1.9c0,.76-.71,1.19-1.25.8-.5-.36-1.07-.66-1.51-.83-.19-.07-.17-.24.05-.24.49,0,1.09.03,1.26-.05.07-.03.07-.1.07-.16v-1.52h-3.24v.93c.62.99,1.56,1.78,2.58,2.48,1.3.88,2.86,1.65,4.35,2.08.29.09.26.19.09.31Z"/>
      </g>
    </g>
  </g>
</svg>