<?xml version="1.0" encoding="UTF-8"?>
<svg id="_圖層_2" data-name="圖層 2" xmlns="http://www.w3.org/2000/svg" viewBox="0 0 18.98 18.98">
  <defs>
    <style>
      .cls-1 {
        fill: #3e3a39;
      }
    </style>
  </defs>
  <g id="_圖層_1-2" data-name="圖層 1">
    <path class="cls-1" d="M9.49,0C4.26,0,0,4.26,0,9.49s4.26,9.49,9.49,9.49,9.49-4.26,9.49-9.49S14.73,0,9.49,0M9.49,18.06C4.77,18.06.93,14.21.93,9.49S4.77.93,9.49.93s8.57,3.84,8.57,8.56-3.84,8.57-8.57,8.57"/>
    <polygon class="cls-1" points="13.55 8.64 13.34 8.55 13.18 8.9 13.39 8.99 13.55 8.64"/>
    <rect class="cls-1" x="13.52" y="8.81" width=".39" height=".23" transform="translate(-.09 17.71) rotate(-65.55)"/>
    <rect class="cls-1" x="12.82" y="8.49" width=".39" height=".23" transform="translate(-.19 16.93) rotate(-65.71)"/>
    <rect class="cls-1" x="13.87" y="8.97" width=".39" height=".23" transform="translate(-.03 18.12) rotate(-65.56)"/>
    <polygon class="cls-1" points="13.01 11.69 13.17 11.34 12.96 11.24 12.8 11.59 13.01 11.69"/>
    <rect class="cls-1" x="11.75" y="10.88" width=".39" height=".23" transform="translate(-3.01 17.31) rotate(-65.55)"/>
    <rect class="cls-1" x="10.35" y="10.25" width=".39" height=".23" transform="translate(-3.24 15.71) rotate(-65.69)"/>
    <polygon class="cls-1" points="10.01 10.33 10.22 10.43 10.38 10.08 10.17 9.98 10.01 10.33"/>
    <polygon class="cls-1" points="10.71 10.65 10.92 10.74 11.08 10.39 10.87 10.3 10.71 10.65"/>
    <rect class="cls-1" x="9.66" y="9.93" width=".39" height=".23" transform="translate(-3.35 14.93) rotate(-65.88)"/>
    <rect class="cls-1" x="12.09" y="11.03" width=".39" height=".23" transform="translate(-2.94 17.75) rotate(-65.65)"/>
    <polygon class="cls-1" points="12.45 11.44 12.66 11.53 12.82 11.18 12.61 11.08 12.45 11.44"/>
    <polygon class="cls-1" points="11.43 10.55 11.22 10.46 11.06 10.81 11.27 10.9 11.43 10.55"/>
    <rect class="cls-1" x="11.4" y="10.72" width=".39" height=".23" transform="translate(-3.07 16.89) rotate(-65.53)"/>
    <rect class="cls-1" x="8.26" y="9.31" width=".39" height=".23" transform="translate(-3.62 13.23) rotate(-65.62)"/>
    <polygon class="cls-1" points="8.97 9.86 9.18 9.96 9.34 9.61 9.13 9.51 8.97 9.86"/>
    <rect class="cls-1" x="9.31" y="9.78" width=".39" height=".23" transform="translate(-3.42 14.49) rotate(-65.72)"/>
    <rect class="cls-1" x="8.61" y="9.46" width=".39" height=".23" transform="translate(-3.56 13.62) rotate(-65.54)"/>
    <path class="cls-1" d="M14.22,11.55l.1.37c.1-.02.19-.06.27-.1l-.17-.35c-.06.03-.13.06-.2.08"/>
    <path class="cls-1" d="M13.86,11.58l-.03.38s.09,0,.13,0c.06,0,.11,0,.17,0l-.04-.38c-.07,0-.14,0-.22,0"/>
    <path class="cls-1" d="M14.55,11.4l.22.32c.08-.06.16-.12.22-.19l-.28-.26c-.05.05-.1.1-.16.14"/>
    <path class="cls-1" d="M14.73,9.66c.05.05.1.1.14.16l.32-.22c-.06-.08-.12-.16-.19-.22l-.26.28Z"/>
    <path class="cls-1" d="M15.39,10.05c-.03-.1-.06-.19-.11-.28l-.35.17c.03.06.06.13.08.2l.37-.1Z"/>
    <path class="cls-1" d="M15.05,10.29s0,.08,0,.12c0,.03,0,.06,0,.09l.38.04s0-.09,0-.13c0-.05,0-.11-.01-.16l-.38.04Z"/>
    <path class="cls-1" d="M13.31,11.4l-.16.35.21.1c.09.04.17.07.26.09l.08-.38c-.06-.01-.12-.03-.18-.06l-.22-.1Z"/>
    <path class="cls-1" d="M14.96,10.84l-.06.13c-.03.06-.06.12-.1.17l.32.22c.05-.07.1-.15.13-.23l.06-.13c.04-.08.06-.17.09-.25l-.37-.09c-.02.06-.04.13-.06.19"/>
    <path class="cls-1" d="M14.38,9.02l-.16.35.21.1c.06.03.12.06.17.1l.22-.32c-.07-.05-.15-.09-.24-.13l-.21-.1Z"/>
    <path class="cls-1" d="M14.79,5.35h-6.07c-.54-.99-1.58-1.67-2.79-1.67-1.75,0-3.18,1.43-3.18,3.18s1.42,3.18,3.18,3.18c.78,0,1.49-.29,2.04-.76l-.06.13.21.1.16-.35-.12-.05c.22-.22.4-.46.55-.74h3.27s0,0,0,0h.17l-.03.08.21.09.08-.17h.17l-.11.23.21.09.15-.33h1.95c.79,0,1.43-.64,1.43-1.43v-.15c0-.79-.64-1.43-1.43-1.43M5.94,9.64c-1.54,0-2.79-1.25-2.79-2.79s1.25-2.79,2.79-2.79c.98,0,1.85.52,2.34,1.29h-.51c-.46-.56-1.12-.87-1.83-.87-1.31,0-2.37,1.07-2.37,2.37s1.06,2.37,2.37,2.37c.71,0,1.37-.32,1.83-.87h.51c-.5.77-1.36,1.29-2.34,1.29M15.84,6.92c0,.57-.47,1.04-1.05,1.04h-7.22l-.06.08c-.38.51-.96.79-1.58.79-1.1,0-1.99-.89-1.99-1.99s.89-1.99,1.99-1.99c.62,0,1.2.29,1.58.79l.06.08h7.22c.58,0,1.05.47,1.05,1.04v.15Z"/>
    <path class="cls-1" d="M5.89,5.8c-.59,0-1.07.48-1.07,1.07s.48,1.07,1.07,1.07,1.07-.48,1.07-1.07-.48-1.07-1.07-1.07M5.89,7.55c-.38,0-.68-.31-.68-.69s.31-.68.68-.68.69.31.69.68-.31.69-.69.69"/>
    <path class="cls-1" d="M6.27,14.29c-.64-.16-.76-.19-.76-.38,0-.21.21-.29.38-.29.27,0,.48.08.5.38h.54c0-.59-.49-.82-1.02-.82-.46,0-.95.24-.95.77,0,.47.38.63.76.72.37.1.75.14.75.42,0,.26-.3.32-.49.32-.3,0-.56-.13-.56-.47h-.54c-.01.63.52.9,1.08.9.69,0,1.06-.35,1.06-.82,0-.57-.57-.69-.75-.74"/>
    <path class="cls-1" d="M8.05,13.24l-.96,2.54h.56l.2-.57h.95l.19.57h.58l-.95-2.54h-.57ZM8,14.8l.33-.93h0l.32.93h-.66Z"/>
    <polygon class="cls-1" points="9.79 15.78 10.35 15.78 10.35 14.73 11.41 14.73 11.41 14.3 10.35 14.3 10.35 13.71 11.57 13.71 11.57 13.24 9.79 13.24 9.79 15.78"/>
    <polygon class="cls-1" points="12.28 14.69 13.5 14.69 13.5 14.25 12.28 14.25 12.28 13.71 13.61 13.71 13.61 13.24 11.72 13.24 11.72 15.78 13.64 15.78 13.64 15.31 12.28 15.31 12.28 14.69"/>
  </g>
</svg>