<?xml version="1.0" encoding="UTF-8"?>
<svg id="_圖層_2" data-name="圖層 2" xmlns="http://www.w3.org/2000/svg" viewBox="0 0 18.98 18.98">
  <defs>
    <style>
      .cls-1 {
        fill: #3e3a39;
      }
    </style>
  </defs>
  <g id="_圖層_1-2" data-name="圖層 1">
    <path class="cls-1" d="M9.49,0C4.26,0,0,4.26,0,9.49s4.26,9.49,9.49,9.49,9.49-4.26,9.49-9.49S14.73,0,9.49,0M9.49,18.06C4.77,18.06.93,14.22.93,9.49S4.77.93,9.49.93s8.57,3.84,8.57,8.57-3.84,8.57-8.57,8.57"/>
    <path class="cls-1" d="M16.81,8.96s-.02-.92-1.08-1.22c-.03-.01-.85-.33-1.64-.54-.02,0-.21-.08-.47-.08-.38,0-.71.16-.95.45,0,0-.54.63-.69.83-.02.02-.14.12-.48-.01l-.52-.15-.26.14-1.72-.56-.1.35-.27-.09.03-.07-5.62-1.85-.81.43-.51,1.51.41.81,5.61,1.85.05-.14.3.1-.11.41,1.66.54s.02.06.04.09c.09.16.27.27.49.32l.39.12s.17.1.17.36c0,.09-.05.9.16,1.33.05.15.25.59,1,.82.03.01.8.31,1.76.52.02,0,.13.03.28.03h0c.25,0,.73-.08,1.11-.57.04-.03.86-.86,1.51-2.59.02-.06.47-1.42.28-3.14M9.64,9.09l-6.55-2.13-.13-.1.11-.06,4.83,1.61-.02.04,1.4.46v-.04s.59.19.59.19v.02s-.24,0-.24,0ZM9.33,8.77l.02-.06.21.08.15.11-.38-.13ZM2.85,6.92l.18.14,6.24,2.03h-.1l-6.22-2h0s-.29,0-.29,0l.03-.09.15-.08ZM2.96,7.47l-.09-.08,6.62,2.14-.28-.03-6.25-2.04ZM2.78,7.47l-.25.02.06-.17.19.16ZM9.7,9.48l-7.03-2.27h.26s6.22,2,6.22,2l.56.26h0ZM15.99,11.91c-.6,1.59-1.36,2.37-1.39,2.4-.25.31-.51.38-.68.38-.08,0-.12-.01-.14-.02-.94-.21-1.69-.5-1.72-.51-.54-.17-.63-.44-.63-.44l-.03-.08c-.11-.2-.13-.73-.11-1.08-.01-.5-.31-.79-.53-.9l-.46-.15c-.06-.01-.09-.03-.12-.04l.07-.21-1.58-.52.11-.41-1.38-.45-.04.13-4.83-1.59-.19-.38.15-.46.44-.03,6.26,2.04.6.07.05-.28-.41-.19h.55s.05-.24.05-.24l-.41-.28-.23-.09v-.03s1.4.45,1.4.45l.27-.15.26.07c.18.07.35.11.51.11.37,0,.59-.21.67-.37.14-.18.62-.74.62-.74.13-.16.3-.24.51-.24.14,0,.25.04.29.05.8.21,1.61.53,1.64.54.65.19.69.63.69.71.18,1.61-.25,2.91-.25,2.91"/>
    <path class="cls-1" d="M14.27,9.07c-.21-.07-.44-.11-.66-.11-.93,0-1.74.59-2.03,1.47-.37,1.12.25,2.32,1.37,2.69.22.07.44.11.66.11.93,0,1.74-.59,2.03-1.47.36-1.12-.25-2.33-1.37-2.69M13.07,12.76c-.92-.3-1.42-1.29-1.12-2.2.24-.72.9-1.21,1.66-1.21.18,0,.36.03.54.09.38.12.68.37.89.67l-.33.16-.71,2.17.16.32c-.17.06-.36.09-.55.09s-.37-.03-.54-.09M15.27,11.64c-.15.48-.5.85-.93,1.04l-.13-.26.66-2.02.27-.13c.22.41.28.9.13,1.37"/>
    <polygon class="cls-1" points="14.07 10.97 14.14 10.74 13.84 10.4 14.28 10.3 14.36 10.07 13.68 10.23 13.31 10.11 13.25 10.32 13.61 10.43 14.07 10.97"/>
    <path class="cls-1" d="M13.23,11.52c-.21-.07-.4.02-.47.23-.05.15-.02.29.12.39l.05-.16s-.06-.1-.04-.18c.03-.1.11-.14.23-.11l-.16.49c.2.08.43.03.51-.2.07-.2-.04-.39-.24-.46M13.34,11.93c-.03.09-.09.11-.19.1l.1-.3s.13.09.09.2"/>
    <rect class="cls-1" x="13.31" y="10.92" width=".2" height=".98" transform="translate(-1.61 20.61) rotate(-71.88)"/>
    <path class="cls-1" d="M13.5,11.26c.16.05.25-.1.29-.24.05-.15.05-.32-.12-.39l-.06.18c.07.03.08.09.06.16-.02.06-.05.12-.13.09-.08-.02-.04-.13-.02-.25.02-.12.02-.24-.13-.3-.14-.05-.24.04-.28.16-.03.08-.03.18.01.25-.02,0-.05,0-.07,0l-.06.19s.1,0,.16.03l.35.12ZM13.21,10.79c.02-.06.05-.11.12-.08.07.02.07.08.06.14,0,.06-.03.13-.01.17l-.07-.02s-.16-.06-.11-.2"/>
  </g>
</svg>