<?xml version="1.0" encoding="UTF-8"?>
<svg id="_圖層_2" data-name="圖層 2" xmlns="http://www.w3.org/2000/svg" viewBox="0 0 18.93 18.92">
  <defs>
    <style>
      .cls-1 {
        fill: #3e3a39;
      }
    </style>
  </defs>
  <g id="_圖層_1-2" data-name="圖層 1">
    <path class="cls-1" d="M9.46,0C4.25,0,0,4.24,0,9.46s4.25,9.46,9.46,9.46,9.46-4.24,9.46-9.46S14.68,0,9.46,0M9.46,18C4.75,18,.92,14.17.92,9.46S4.75.92,9.46.92s8.54,3.83,8.54,8.54-3.83,8.54-8.54,8.54"/>
    <path class="cls-1" d="M13.6,9.68c0-1.22-.6-2.36-1.6-3.05-.16-.11-.37-.07-.49.09-.11.16-.07.38.09.48.82.57,1.3,1.49,1.3,2.48s-.49,1.91-1.3,2.47c-.16.11-.2.33-.09.49.11.16.32.2.48.09,1-.69,1.6-1.83,1.6-3.05"/>
    <path class="cls-1" d="M14.97,9.68c0-1.66-.82-3.22-2.2-4.18-.16-.11-.37-.07-.48.09-.11.16-.08.38.08.48,1.18.83,1.9,2.17,1.9,3.61s-.71,2.78-1.9,3.61c-.16.11-.2.33-.08.48.11.16.32.2.48.09,1.37-.95,2.2-2.52,2.2-4.18"/>
    <path class="cls-1" d="M13.56,4.38c-.16-.11-.37-.07-.49.09-.11.16-.07.38.08.48,1.56,1.08,2.49,2.85,2.49,4.74s-.93,3.65-2.49,4.73c-.16.11-.2.33-.09.49.11.16.33.2.49.09,1.74-1.21,2.79-3.19,2.79-5.31s-1.04-4.1-2.78-5.31"/>
    <path class="cls-1" d="M11.57,9.23h-.34v-.82H2.39v.82h-.19v.91h.19v.79h8.84v-.79h.34v-.91ZM3.78,10.38l-.78-.78v-.36l1.14,1.14h-.36ZM10.69,10.38h-6.01l-1.38-1.38h7.4v1.38Z"/>
  </g>
</svg>