<?xml version="1.0" encoding="UTF-8"?>
<svg id="_圖層_2" data-name="圖層 2" xmlns="http://www.w3.org/2000/svg" viewBox="0 0 18.95 18.95">
  <defs>
    <style>
      .cls-1 {
        fill: #3e3a39;
      }

      .cls-2 {
        fill: #fff;
      }
    </style>
  </defs>
  <g id="_圖層_1-2" data-name="圖層 1">
    <path class="cls-1" d="M13.21,7.81h-.98v-3.32c0-1.01-.82-1.83-1.83-1.83h-1.74c-1.01,0-1.83.82-1.83,1.83v3.32h-1.22c-.73,0-1.31.59-1.31,1.32v4.73c0,.73.59,1.31,1.31,1.31h7.61c.73,0,1.32-.59,1.32-1.31v-4.73c0-.73-.59-1.32-1.32-1.32ZM11.19,7.81h-3.34v-3.32c0-.44.36-.8.8-.8h1.74c.45,0,.8.36.8.8v3.32Z"/>
    <path class="cls-1" d="M9.47,0C4.25,0,0,4.25,0,9.47s4.25,9.48,9.47,9.48,9.47-4.25,9.47-9.48S14.7,0,9.47,0M9.47,18.03C4.76,18.03.92,14.19.92,9.47S4.76.92,9.47.92s8.55,3.84,8.55,8.55-3.84,8.55-8.55,8.55"/>
    <path class="cls-2" d="M6.7,10.3h.67l.79,2.42h-.53l-.16-.55h-.87l-.16.55h-.53l.79-2.42ZM7.34,11.73c-.11-.34-.2-.68-.31-1.02-.1.34-.2.69-.3,1.02h.61Z"/>
    <path class="cls-2" d="M8.38,12.02v-1.02h.47v1.02c0,.24.07.32.32.32s.32-.09.32-.32v-1.02h.47v1.02c0,.48-.27.73-.8.73s-.78-.25-.78-.73Z"/>
    <path class="cls-2" d="M10.44,12.16v-.77h-.25v-.37h.17c.07,0,.09-.03.09-.1v-.33h.46v.41h.34v.39h-.34v.71c0,.17.05.24.34.22v.42c-.62.05-.81-.19-.81-.57Z"/>
    <path class="cls-2" d="M11.47,11.86c0-.34.14-.89.85-.89s.85.55.85.89-.13.89-.85.89-.85-.55-.85-.89ZM12.69,11.86c0-.22-.04-.49-.37-.49s-.38.27-.38.49.04.49.38.49.37-.26.37-.49Z"/>
  </g>
</svg>