<?xml version="1.0" encoding="UTF-8"?>
<svg id="_圖層_2" data-name="圖層 2" xmlns="http://www.w3.org/2000/svg" viewBox="0 0 18.93 18.92">
  <defs>
    <style>
      .cls-1 {
        fill: #3e3a39;
      }
    </style>
  </defs>
  <g id="_圖層_1-2" data-name="圖層 1">
    <path class="cls-1" d="M9.46,0C4.25,0,0,4.24,0,9.46s4.25,9.46,9.46,9.46,9.46-4.24,9.46-9.46S14.68,0,9.46,0M9.46,18C4.75,18,.92,14.17.92,9.46S4.75.92,9.46.92s8.54,3.83,8.54,8.54-3.83,8.54-8.54,8.54"/>
    <path class="cls-1" d="M12.55,7.22l-3.39-3.39v4.47l-1.86-1.86-.68.68,2.34,2.35-2.34,2.35.68.68,1.86-1.86v4.47l3.39-3.39-2.24-2.24,2.24-2.24ZM11.19,7.23l-1.08,1.08v-2.16s1.08,1.08,1.08,1.08ZM11.19,11.69l-1.08,1.08v-2.16s1.08,1.08,1.08,1.08Z"/>
  </g>
</svg>