<?xml version="1.0" encoding="UTF-8"?>
<svg id="_圖層_2" data-name="圖層 2" xmlns="http://www.w3.org/2000/svg" viewBox="0 0 18.98 18.98">
  <defs>
    <style>
      .cls-1 {
        fill: #3e3a39;
      }
    </style>
  </defs>
  <g id="_圖層_1-2" data-name="圖層 1">
    <path class="cls-1" d="M9.49,0C4.26,0,0,4.26,0,9.49s4.26,9.49,9.49,9.49,9.49-4.26,9.49-9.49S14.73,0,9.49,0M9.49,18.06C4.77,18.06.93,14.21.93,9.49S4.77.93,9.49.93s8.57,3.84,8.57,8.57-3.84,8.57-8.57,8.57"/>
    <path class="cls-1" d="M10.71,12.65v-.02l-.02-.03v-.05l-.02-.03-.02-.02v-.04h-.02s-.02-.05-.02-.05v-.02h-.02s-.01-.05-.01-.05h-.02s-.02-.03-.02-.03h-.02s-.01-.03-.01-.03h-.02s-.01-.05-.01-.05l-.02-.02-.02-.02h-.02s-.02-.03-.02-.03l-.03-.02-.02-.02v-.02s-.03-.02-.03-.02v-.02h.02v-.02s.03-.01.03-.01v-.02h.01v-.02l.02-.02.02-.02v-.02h.02v-.02h.02s.02-.03.02-.03v-.04s.01-.02.01-.02h.02v-.05s.01-.02.01-.02l.02-.02h0v-.05h0s.02-.03.02-.03v-.04h0v-.07h0v-.13l-.02-.03v-.05l-.02-.02v-.04h-.01v-.03l-.02-.02h0s-.01-.03-.01-.03v-.03h-.02v-.03l-.02-.02-.02-.02v-.02h-.02s-.02-.03-.02-.03v-.02h-.01s-.02-.03-.02-.03v-.02s-.03-.02-.03-.02v-.02l-.02-.02h-.02l-.02-.02-.02-.02-.02-.02-.02-.02h-.02v-.02s-.03-.02-.03-.02l-.02-.02h-.01l-.02-.02h-.03l-.02-.02v-.02h-.03v-.02h-.06l-.02-.02h-.03l-.03-.02h-.05l-.03-.02h-.22l-.03.02h-.08l-.02.02h-.03l-.02.02h-.03v.02h-.03l-.02.02h-.02v.02h-.05l-.02.02v.02h-.03l-.02.02h-.02v.02s-.03.02-.03.02l-.02.02h-.02v.02s-.03.02-.03.02v.02l-.02.02-.02.02-.02.02-.02.02h-.01v.03l-.02.02h-.01v.03l-.02.02v.02s-.01.02-.01.02h-.02v.03l-.02.03h0s-.01.03-.01.03v.02h-.02v.1s-.01.02-.01.02v.15h0v.07h0v.05s.01.01.01.01v.03l.02.02h0v.05s.01.02.01.02l.02.03v.02l.02.02v.02h.01s.02.03.02.03v.03s.01.02.01.02l.02.02v.02s.03.02.03.02h.02v.03h.02l.02.02-.02.02-.03.02-.02.02v.02s-.03.02-.03.02h-.03s-.01.05-.01.05h-.02s-.02.03-.02.03h-.01s-.02.05-.02.05h-.01l-.02.02v.03s-.01.02-.01.02h-.02s-.01.05-.01.05v.02l-.02.03-.02.03v.02l-.02.03v.07s-.01.03-.01.03v.05l-.02.03v.17l.02.03v.08s.01.03.01.03v.02h.02v.05h.02v.05l.02.02v.02s.01.01.01.01l.02.03v.02s.01.02.01.02l.02.03v.02s.03.01.03.01v.04s.03.01.03.01l.02.02v.02s.03.02.03.02v.03h.03v.02s.03.02.03.02h.02s.02.03.02.03l.02.02.02.02h.03s.02.03.02.03h.02v.02s.05.02.05.02l.02.02h.01l.03.02v.02h.03l.03.02h.02v.02h.09s.02.01.02.01h.03v.02h.31v-.02h.11s.03-.01.03-.01l.02-.02h.02l.03-.02h.02l.03-.02h.02v-.02h.05l.02-.02.02-.02.03-.02h.02l.02-.02h.02s.03-.03.03-.03l.02-.02h.02v-.02s.03-.01.03-.01v-.02s.03-.02.03-.02l.02-.02.02-.02.02-.02.02-.02v-.02s.03-.03.03-.03v-.02s.03-.01.03-.01l.02-.02.02-.03v-.03s.03-.02.03-.02v-.03l.02-.02.02-.02v-.03h.02v-.05h.02v-.06l.02-.02v-.1s.01-.02.01-.02v-.08h0v-.09h0s-.01-.05-.01-.05v-.03ZM9.41,11.6v-.04h0v-.03h.02v-.05h0s.02-.01.02-.01v-.03h.01v-.03h.02v-.02h.01v-.02h.02v-.02h.01s.02-.01.02-.01l.02-.02h.02v-.02h.03s.02-.01.02-.01h.01v-.02h.05l.02-.02h.17v.02h.04v.02h.03s.02.01.02.01h.02v.02h.02v.02h.02s.01.01.01.01v.02h.02v.02h.02v.02h.02v.03h.01v.03h.01v.06h.02v.02h0v.05h0s-.02.01-.02.01v.06h0s-.01.01-.01.01v.04h-.01v.03h-.02v.02h-.02v.02h-.02s-.01.01-.01.01v.02h-.02l-.02.02-.02.02h-.02v.02h-.03s-.01.01-.01.01h-.02v.02h-.06v.02h-.11v-.02h-.06l-.02-.02h-.03s-.01-.01-.01-.01l-.02-.02h-.02v-.02h-.02v-.02h-.02v-.02s-.03-.01-.03-.01v-.02h-.01v-.02h-.02v-.03h-.01v-.04h-.02v-.07h-.02ZM10.24,12.73v.04h0v.03h0v.06h0v.03l-.02.02v.05l-.02.02v.03s-.01.02-.01.02l-.02.02v.03s-.01.01-.01.01h-.02v.02l-.02.02h-.01s-.02.03-.02.03v.02h-.03v.02h-.02v.02h-.03s-.01.01-.01.01l-.02.02h-.02l-.02.02h-.03v.02h-.05v.02h-.1v.02h-.04v-.02h-.09l-.02-.02h-.03v-.02h-.03l-.02-.02h-.02l-.02-.02h-.01s-.02-.01-.02-.01v-.02s-.03-.02-.03-.02v-.02s-.03-.02-.03-.02h-.02s-.02-.03-.02-.03v-.02h-.01s-.01-.03-.01-.03v-.02h-.02v-.03h-.02v-.05s-.01-.02-.01-.02v-.03l-.02-.02v-.02h0v-.06h0v-.03h0v-.05h.02v-.08s.01-.02.01-.02l.02-.02v-.02l.02-.02v-.02h.01v-.03h.01v-.02l.02-.02.02-.02.02-.02h.01s.02-.03.02-.03v-.02h.03v-.02h.03s.02-.01.02-.01h.02v-.02h.03v-.02h.05s.02-.01.02-.01h.06l.02-.02h.06l.02.02h.09s.02.01.02.01h.02l.02.02h.02l.02.02h.03s.02.03.02.03h.02l.02.02v.02s.03.01.03.01l.02.02v.02s.03.02.03.02v.02h.02v.02h.01v.03h.02v.03h.01v.03l.02.02v.05h.02Z"/>
    <polygon class="cls-1" points="5.55 13.96 6.64 13.96 5.64 16.32 6.11 16.32 7.16 13.89 7.16 13.53 5.55 13.53 5.55 13.96"/>
    <path class="cls-1" d="M13.75,4.27v-.03h0s-.01-.03-.01-.03h0s-.01-.04-.01-.04h0s-.01-.04-.01-.04h0s-.01-.03-.01-.03h0s-.01-.02-.01-.02v-.03s-.02-.01-.02-.01v-.02h-.01s-.01-.02-.01-.02v-.02s-.02-.01-.02-.01h-.01v-.05s-.02-.01-.02-.01h-.01s-.01-.02-.01-.02h-.01s-.02-.02-.02-.02v-.02s-.02-.01-.02-.01h-.01s-.01-.02-.01-.02h-.02s-.01-.02-.01-.02h-.01s-.02-.02-.02-.02h-.01s-.01-.03-.01-.03h-.03s-.03-.02-.03-.02h-.03s-.01-.02-.01-.02h-.04s-.02-.01-.02-.01h-.01s-.02,0-.02,0h-.01s-.02-.01-.02-.01h-.06s-.01-.01-.01-.01h-.21s-.01.01-.01.01h-.04s-.02.01-.02.01h-.03s-.02,0-.02,0h0s-.02.03-.02.03h-.02s-.02.02-.02.02h-.03s-.01.03-.01.03h-.01s-.02.03-.02.03h-.01s-.01.02-.01.02h-.02s-.01.02-.01.02h0s-.01.02-.01.02v.02s-.02,0-.02,0h-.03s0,.03,0,.03v.02s-.02.01-.02.01h0v.02h-.01s-.01.04-.01.04h-.01s-.01.02-.01.02v.03s-.01.01-.01.01h-.01s-.01.04-.01.04h0s0,.04,0,.04h-.01v.03h0v.04h-.01v.04h0s-.01.03-.01.03v.04h-.01v.04h0v.04h0v.04h0v.04h0v.04h0s.01.04.01.04h0v.04h0s.01.03.01.03h0s.01.04.01.04h0s0,.04,0,.04h0s.01.04.01.04h0s0,.02,0,.02v.02s.01.01.01.01h.01v.02s.02.01.02.01h.01v.04h.01s.01.03.01.03h0s.01.03.01.03h.01s0,.02,0,.02h.01s.01.03.01.03h.01s.01.02.01.02h.01s0,.02,0,.02h.02s.01.02.01.02h.01s.01.03.01.03h.01s.02.01.02.01h.01s.01.02.01.02h.02s.01.03.01.03h.02v.02h.04s.01.01.01.01h.02s.01.01.01.01h.02s.01.01.01.01h.06s.01.01.01.01h.12l-.43.64h.43l.58-.88.02-.03v-.03s.04-.03.04-.03v-.04s.02-.02.02-.02v-.02s.02-.02.02-.02v-.04s.02-.01.02-.01v-.02h.01v-.04h0s.01-.03.01-.03h0v-.04h0s.01-.02.01-.02v-.02h0v-.04h0v-.03h0v-.04h0v-.03h0v-.06s-.01,0-.01,0ZM13.42,4.33h0v.02h0v.02h0v.03h0v.02h0v.04h0v.02h0s-.01.02-.01.02h0v.02h-.01v.03h0s-.01,0-.01,0h0v.02h-.01s0,.03,0,.03h0v.02h-.01s-.01.02-.01.02h0s-.01.03-.01.03h0s-.01.02-.01.02h-.01s-.01.02-.01.02h-.01s-.01.01-.01.01h-.04s0,.01,0,.01h-.01s-.01.01-.01.01h-.01s-.01.01-.01.01h0s-.01.01-.01.01h-.05s-.01.01-.01.01h-.14s-.01-.01-.01-.01h-.02s0-.01,0-.01h-.02s-.01-.01-.01-.01h-.01s-.01-.01-.01-.01h0s-.01-.01-.01-.01h-.02s0-.01,0-.01h0s-.01-.01-.01-.01h-.01s0-.03,0-.03h0s-.01,0-.01,0h-.01v-.03h0s-.01-.02-.01-.02h-.01v-.02h-.01v-.03h-.01v-.02h0s-.01,0-.01,0h0v-.03h-.01v-.02h0v-.02h-.01v-.04h0v-.02h0v-.02h0v-.03h0v-.02h0v-.02h0v-.02h.01v-.03h0s.01-.02.01-.02h0v-.02h.01v-.02h.01v-.02h.01v-.03h.01s.01-.02.01-.02h0s0-.01,0-.01h0s.01-.02.01-.02h.01v-.02h.02s.01-.03.01-.03h0s.01-.01.01-.01h.01s.01-.02.01-.02h.02s.01-.01.01-.01h.01s.01-.01.01-.01h.02s.01-.01.01-.01h.02s.01-.01.01-.01h.06s0-.01,0-.01h.02s0,.01,0,.01h.07s.01.01.01.01h.02s.01.01.01.01h.01s.01.01.01.01h0s.01.01.01.01h.01s.01.01.01.01h0s.01.01.01.01h.01s.01.02.01.02h.01s.01.02.01.02h0s.01.03.01.03h0v.02h.01s.01.02.01.02h0s0,.03,0,.03h0s.01.02.01.02h0s.01.02.01.02h0v.04s.01,0,.01,0h0v.03h.01v.02Z"/>
    <path class="cls-1" d="M13.69,13.99l-.02-.05v-.05s0-.06,0-.06l-.02-.02v-.06s-.03-.02-.03-.02v-.04s-.03-.03-.03-.03v-.02s-.03-.03-.03-.03v-.05s-.03-.01-.03-.01v-.03s-.03-.02-.03-.02h-.02s-.03-.05-.03-.05l-.02-.02h-.01s-.01-.03-.01-.03h-.02s-.01-.03-.01-.03h-.03s-.01-.03-.01-.03h-.02s-.03-.03-.03-.03v-.02s-.03-.01-.03-.01l-.03-.02v-.02s-.04-.01-.04-.01h-.04s-.02-.03-.02-.03h-.03l-.02-.02h-.06s-.01-.01-.01-.01h-.03s-.03-.01-.03-.01h-.01l-.03-.02h-.27v.02h-.09s-.03.01-.03.01h-.03s-.01.01-.01.01l-.03.02h-.03v.02s-.04.01-.04.01h-.04s-.02.03-.02.03l-.03.02h-.01s-.03.03-.03.03v.02s-.04.01-.04.01l-.02.02h-.02s-.03.03-.03.03v.03s-.03,0-.03,0v.02s-.03.02-.03.02v.03s-.04.02-.04.02h-.01s-.02.05-.02.05v.02h-.01s-.01.04-.01.04l-.02.02v.02s-.03.03-.03.03v.02l-.02.03v.05s-.01.03-.01.03l-.02.02v.03l-.02.04v.05s-.01.05-.01.05v.09s-.01.06-.01.06v.71h0v.15h0v.07s.01.02.01.02v.06h.01v.05l.02.03h0v.05l.02.03v.02s.01.03.01.03l.02.02v.03s.01.03.01.03v.02s.03.03.03.03v.02s.03.03.03.03h.02s.01.04.01.04v.02s.03.03.03.03l.03.02v.02s.03.03.03.03v.02s.04.01.04.01h.02s.02.03.02.03h.03s.01.03.01.03h.03s.01.03.01.03l.03.02h.02s.03.03.03.03h.04s.01.03.01.03h.06s.01.01.01.01l.03.02h.05l.03.02h.1s.03.01.03.01h.2s.03-.01.03-.01h.01l.03-.02h.03l.03-.02h.04s.03-.03.03-.03h.04s.03-.03.03-.03h.01s.03-.01.03-.01v-.02s.04-.02.04-.02h.02s.03-.03.03-.03v-.03s.04-.01.04-.01h.01s.02-.03.02-.03h.03s.02-.05.02-.05l.02-.02v-.02s.03-.03.03-.03h.01s.01-.04.01-.04l.02-.02v-.02s.03-.03.03-.03v-.03s.03-.01.03-.01v-.03s.01-.02.01-.02l.02-.03v-.03s.01-.01.01-.01l.02-.03v-.05s0-.03,0-.03v-.04l.02-.06v-.09s.01-.04.01-.04v-.93s-.01-.04-.01-.04ZM13.27,14.15v.91s-.01.01-.01.01v.02h0v.03h0s-.01.03-.01.03h0v.03h-.01v.03h0s-.01.03-.01.03v.02h-.02v.05s-.03.02-.03.02h0s-.01.03-.01.03h-.02s-.01.03-.01.03v.02s-.03.02-.03.02h-.01s-.01.01-.01.01l-.02.02h-.01s-.01.01-.01.01v.02h-.04s-.01.01-.01.01h-.01l-.02.02h-.03v.02h-.23v-.02h-.06v-.02h-.04s-.02-.01-.02-.01v-.02h-.04s-.01-.01-.01-.01v-.02h-.03s-.02-.03-.02-.03h-.01v-.02l-.02-.02h-.01s-.02-.03-.02-.03h0s-.01-.03-.01-.03v-.02s-.01-.02-.01-.02h-.02v-.05s-.01-.01-.01-.01l-.02-.02h0v-.03h0s-.01-.03-.01-.03h0v-.03h0v-.18s-.01-.15-.01-.15v-.71h.01v-.02h0v-.06h.01v-.03l.02-.02v-.02h0s.01-.03.01-.03v-.02l.02-.02h0s.01-.03.01-.03v-.02s.01-.01.01-.01l.02-.02h.01s.02-.03.02-.03h.01s.02-.03.02-.03v-.02s.03-.01.03-.01h.01v-.02h.03v-.02h.03v-.02h.06s.01-.01.01-.01h.01v-.02h.1s.01-.01.01-.01h.06s.01.01.01.01h.05v.02h.06s.01.01.01.01h.01v.02h.03v.02h.01v.02h.04s.01.01.01.01v.03h.04v.03h.01s.02.01.02.01v.02s.01.01.01.01l.02.02v.02s.01.01.01.01l.02.02v.03h.01v.06s.01.01.01.01v.03s.01.02.01.02h0v.09s.01.03.01.03Z"/>
    <path class="cls-1" d="M3.78,10.46v-.1s-.01-.02-.01-.02v-.05s-.01-.03-.01-.03l-.02-.02v-.04s-.01-.03-.01-.03h-.01v-.03l-.02-.03h-.01s-.01-.05-.01-.05v-.02h-.02s-.01-.04-.01-.04l-.02-.02-.02-.02h-.01s-.02-.05-.02-.05h-.01s-.01-.03-.01-.03h-.01s-.01-.03-.01-.03h-.02s-.01-.03-.01-.03v-.02s-.03-.01-.03-.01v-.02s-.04-.01-.04-.01v-.02s-.03-.01-.03-.01v-.02s-.04-.02-.04-.02h-.01s-.01-.03-.01-.03l-.03-.02h-.05s-.02-.03-.02-.03h-.01l-.03-.02v-.02h-.05s-.03-.01-.03-.01h-.04s-.02-.01-.02-.01h-.06v-.02h-.14v-.02l.52-.79h-.52v.02l-.3.45-.41.66h-.02s-.01.03-.01.03h-.02s-.01.03-.01.03v.04s-.03.02-.03.02h0s-.01.04-.01.04v.02s-.01.02-.01.02v.03s-.01.02-.01.02v.02s-.01.03-.01.03l-.02.02v.05s-.01.01-.01.01v.03h-.01v.04h0s-.02.05-.02.05h0v.1s-.01.03-.01.03h0v.08h0s.01.05.01.05h0v.05h0v.04h.02v.09s.01.03.01.03v.02s.01.03.01.03h.02v.06s.03.03.03.03v.02h.01s.01.05.01.05h.02v.06s.02.01.02.01h.02s.01.05.01.05h.02s.01.03.01.03h.02s.01.03.01.03v.03s.03.01.03.01l.02.02.03.02h.02s.01.03.01.03l.02.02h.03s.02.01.02.01l.02.02h.03s.02.03.02.03h.01s.03.01.03.01v.02s.04.01.04.01h.01l.03.02h.01s.03.01.03.01v.02h.08s.01.01.01.01l.03.02h.12s.01.01.01.01h.12s.03-.01.03-.01h.04l.03-.02h.07s.02-.01.02-.01l.03-.02h.04s.03-.01.03-.01v-.02h.06s.03-.03.03-.03h.02s.01-.03.01-.03h.04s.01-.03.01-.03h.03s.01-.03.01-.03v-.02s.03-.01.03-.01l.03-.02v-.03s.03-.01.03-.01v-.02s.03-.02.03-.02h.01s.01-.04.01-.04h.02s.01-.03.01-.03h.02v-.04l.02-.02h.01s.02-.04.02-.04v-.02s.01-.03.01-.03v-.02s.03-.01.03-.01v-.05s.02-.03.02-.03h0s.02-.04.02-.04h0v-.06s.01-.03.01-.03h.01v-.04h0v-.09s.01-.03.01-.03v-.05h0s-.01-.04-.01-.04v-.02ZM3.36,10.53v.02h0v.04h0v.05s-.01.01-.01.01v.03h0s-.01.03-.01.03h0v.03h-.02v.05h0v.03h-.02v.03h-.01v.02h-.02s-.02.03-.02.03h0s-.01.01-.01.01v.02h-.01s-.02.03-.02.03h-.01s-.01.03-.01.03h-.02v.02h-.03s-.02.03-.02.03h-.01l-.02.02h-.01s-.02.01-.02.01h-.02s-.02.01-.02.01v.02h-.04l-.02.02h-.21v-.02h-.03l-.02-.02h-.03s-.01-.01-.01-.01h-.03s-.01-.03-.01-.03h-.02v-.02s-.02-.01-.02-.01h-.02v-.02h-.01v-.02h-.01s-.02-.01-.02-.01v-.02h-.01s-.01-.03-.01-.03h0s-.01-.01-.01-.01v-.02h-.02v-.03h-.01s-.01-.03-.01-.03v-.03h-.01v-.03h-.01v-.03h0v-.03h-.02v-.05h0s-.01-.03-.01-.03v-.02h0v-.05h0v-.03h0v-.03h0v-.05s.01,0,.01,0v-.03h.02v-.06h.01v-.05s.01-.01.01-.01v-.02s.01-.02.01-.02h.01s.02-.03.02-.03v-.03s.03-.02.03-.02h0s.01-.01.01-.01h0s.02-.01.02-.01v-.02s.03-.02.03-.02h.02s.01-.03.01-.03h.01l.02-.02h.01l.02-.02h.01s.01-.01.01-.01h.02v-.02h.06s.02-.01.02-.01h.04v-.02h.11v.02h.08s.01.01.01.01h.02v.02h.04s.01.01.01.01l.02.02v.02h.03l.02.02h.01s.02.01.02.01v.02h.01v.02h.01s.02.01.02.01h0s.01.03.01.03v.02s.01.02.01.02h.02s.02.03.02.03v.02h.01v.02h.02v.04h0v.03l.02.02h0v.04h.01v.02h0v.04h0s.01.03.01.03h0Z"/>
    <polygon class="cls-1" points="10.8 5.23 10.82 5.19 10.82 5.17 10.84 5.12 10.84 5.1 10.84 5.06 10.86 5.04 10.86 5 10.86 4.98 10.86 4.94 10.86 4.89 10.86 4.87 10.88 4.83 10.88 4.81 10.88 4.77 10.88 4.75 10.86 4.7 10.86 4.68 10.86 4.64 10.86 4.62 10.86 4.58 10.84 4.54 10.84 4.52 10.84 4.47 10.82 4.46 10.82 4.41 10.8 4.4 10.8 4.35 10.78 4.33 10.78 4.29 10.76 4.27 10.76 4.22 10.74 4.21 10.72 4.18 10.7 4.14 10.7 4.12 10.68 4.08 10.66 4.06 10.64 4.04 10.62 4.02 10.6 3.97 10.58 3.95 10.56 3.93 10.54 3.91 10.52 3.89 10.5 3.85 10.48 3.83 10.46 3.81 10.44 3.79 10.42 3.77 10.39 3.74 10.36 3.73 10.34 3.7 10.32 3.68 10.28 3.68 10.26 3.67 10.22 3.64 10.2 3.62 10.18 3.6 10.14 3.6 10.12 3.58 10.08 3.56 10.07 3.56 10.02 3.53 10.01 3.53 9.96 3.51 9.93 3.51 9.91 3.5 9.87 3.5 9.85 3.5 9.81 3.47 9.79 3.47 9.75 3.47 9.71 3.47 9.69 3.47 9.65 3.47 9.63 3.45 9.59 3.45 9.57 3.45 9.53 3.45 9.51 3.47 9.47 3.47 9.43 3.47 9.41 3.47 9.37 3.47 9.35 3.5 9.33 3.5 9.31 3.5 9.29 3.5 9.27 3.51 9.25 3.51 9.23 3.51 9.22 3.51 9.31 2.93 10.6 2.93 10.6 2.35 8.8 2.35 8.46 4.31 8.91 4.46 8.95 4.41 8.95 4.4 8.98 4.37 9 4.37 9.01 4.35 9.03 4.33 9.06 4.31 9.07 4.29 9.09 4.27 9.11 4.25 9.13 4.25 9.15 4.22 9.19 4.21 9.21 4.18 9.23 4.18 9.25 4.16 9.27 4.14 9.29 4.14 9.31 4.14 9.33 4.12 9.35 4.12 9.37 4.1 9.39 4.1 9.41 4.1 9.43 4.08 9.45 4.08 9.47 4.08 9.49 4.08 9.51 4.08 9.53 4.08 9.55 4.08 9.57 4.06 9.59 4.06 9.61 4.08 9.63 4.08 9.65 4.08 9.67 4.08 9.69 4.08 9.71 4.08 9.73 4.08 9.75 4.1 9.77 4.1 9.79 4.1 9.81 4.1 9.81 4.12 9.83 4.12 9.85 4.12 9.87 4.14 9.89 4.14 9.89 4.16 9.91 4.16 9.93 4.16 9.95 4.18 9.96 4.21 9.98 4.21 10.01 4.22 10.02 4.25 10.04 4.25 10.04 4.27 10.07 4.29 10.08 4.29 10.08 4.31 10.11 4.33 10.12 4.35 10.12 4.37 10.14 4.37 10.14 4.4 10.17 4.41 10.18 4.44 10.18 4.46 10.18 4.47 10.2 4.49 10.22 4.52 10.22 4.54 10.22 4.56 10.22 4.58 10.24 4.58 10.24 4.6 10.24 4.62 10.24 4.64 10.26 4.67 10.26 4.68 10.26 4.7 10.26 4.73 10.26 4.75 10.26 4.77 10.28 4.79 10.28 4.81 10.28 4.83 10.26 4.85 10.26 4.87 10.26 4.89 10.26 4.92 10.26 4.94 10.26 4.96 10.26 4.98 10.24 5 10.24 5.02 10.24 5.04 10.24 5.06 10.22 5.06 10.22 5.08 10.22 5.1 10.22 5.12 10.2 5.14 10.18 5.17 10.18 5.19 10.18 5.21 10.17 5.21 10.17 5.23 10.14 5.25 10.12 5.27 10.12 5.29 10.11 5.31 10.08 5.33 10.07 5.35 10.04 5.37 10.02 5.39 10.01 5.39 10.01 5.42 9.98 5.42 9.96 5.44 9.95 5.44 9.95 5.46 9.93 5.46 9.91 5.48 9.89 5.48 9.87 5.5 9.85 5.5 9.83 5.52 9.81 5.52 9.79 5.52 9.77 5.54 9.75 5.54 9.73 5.54 9.71 5.56 9.69 5.56 9.67 5.56 9.65 5.56 9.63 5.56 9.61 5.56 9.59 5.56 9.57 5.56 9.55 5.56 9.53 5.56 9.51 5.56 9.49 5.56 9.47 5.56 9.45 5.56 9.43 5.54 9.41 5.54 9.39 5.54 9.37 5.52 9.35 5.52 9.33 5.52 9.31 5.5 9.29 5.5 9.27 5.48 9.25 5.48 9.25 5.46 9.23 5.46 9.21 5.46 9.21 5.44 9.19 5.44 9.19 5.42 9.17 5.42 9.15 5.39 9.13 5.37 9.13 5.35 9.11 5.33 9.09 5.31 9.06 5.27 9.03 5.23 9.01 5.21 9 5.17 9 5.12 8.98 5.1 8.95 5.06 8.93 5.02 8.93 4.98 8.91 4.96 8.91 4.92 8.9 4.87 8.9 4.83 8.88 4.79 8.88 4.75 8.26 4.75 8.28 4.81 8.28 4.85 8.28 4.89 8.28 4.92 8.3 4.96 8.3 4.98 8.3 5.02 8.32 5.06 8.32 5.08 8.34 5.12 8.34 5.14 8.36 5.19 8.36 5.23 8.38 5.25 8.4 5.29 8.4 5.31 8.42 5.35 8.44 5.37 8.46 5.42 8.46 5.44 8.48 5.48 8.5 5.5 8.52 5.54 8.54 5.56 8.56 5.58 8.58 5.62 8.6 5.65 8.62 5.67 8.64 5.71 8.66 5.73 8.68 5.75 8.7 5.77 8.72 5.81 8.73 5.83 8.76 5.86 8.78 5.87 8.82 5.89 8.84 5.92 8.86 5.92 8.88 5.94 8.9 5.96 8.93 5.98 8.95 6 8.98 6.02 9.01 6.02 9.03 6.04 9.06 6.06 9.09 6.06 9.11 6.08 9.15 6.08 9.17 6.1 9.21 6.1 9.23 6.12 9.27 6.12 9.29 6.14 9.31 6.14 9.35 6.14 9.37 6.17 9.41 6.17 9.43 6.17 9.47 6.17 9.49 6.17 9.53 6.17 9.55 6.17 9.59 6.17 9.61 6.17 9.65 6.17 9.69 6.17 9.71 6.17 9.75 6.17 9.77 6.17 9.81 6.14 9.85 6.14 9.87 6.14 9.91 6.12 9.93 6.12 9.96 6.1 9.98 6.1 10.02 6.08 10.07 6.08 10.08 6.06 10.12 6.04 10.14 6.04 10.18 6.02 10.2 6 10.22 5.98 10.26 5.98 10.28 5.96 10.32 5.94 10.34 5.92 10.36 5.89 10.39 5.87 10.42 5.86 10.44 5.83 10.46 5.81 10.48 5.79 10.5 5.77 10.52 5.75 10.54 5.71 10.56 5.69 10.58 5.67 10.6 5.65 10.62 5.6 10.64 5.58 10.66 5.56 10.68 5.52 10.7 5.5 10.7 5.48 10.72 5.44 10.74 5.42 10.74 5.37 10.76 5.35 10.78 5.31 10.78 5.29 10.8 5.25 10.8 5.23"/>
    <path class="cls-1" d="M5.11,4.03h-.55l-.41.63-1.15,1.72v.43h1.57l.02.67.53-.02.02-.65h.31v-.51h-.31l-.02-2.28ZM4.61,6.33l-.46-.02h-.48l.48-.76.48-.74-.02,1.52Z"/>
    <polygon class="cls-1" points="6.18 8.22 6.8 8.22 6.8 11.67 7.31 11.67 7.31 11.17 7.31 7.68 6.18 7.68 6.18 8.22"/>
    <polygon class="cls-1" points="12.61 9.81 11.39 9.8 12.07 9.16 12.11 9.11 12.15 9.06 12.2 9.02 12.24 8.97 12.29 8.93 12.33 8.88 12.37 8.83 12.4 8.77 12.42 8.76 12.43 8.75 12.43 8.73 12.45 8.71 12.46 8.7 12.46 8.68 12.47 8.67 12.47 8.65 12.49 8.64 12.49 8.62 12.5 8.61 12.52 8.59 12.52 8.58 12.52 8.56 12.53 8.54 12.53 8.53 12.55 8.5 12.55 8.48 12.55 8.47 12.56 8.45 12.56 8.44 12.56 8.42 12.56 8.39 12.58 8.38 12.58 8.36 12.58 8.35 12.58 8.33 12.58 8.3 12.58 8.29 12.58 8.27 12.58 8.25 12.58 8.24 12.58 8.21 12.58 8.19 12.58 8.16 12.58 8.15 12.58 8.12 12.58 8.1 12.56 8.09 12.56 8.06 12.56 8.04 12.55 8.01 12.55 7.99 12.53 7.98 12.53 7.95 12.52 7.93 12.52 7.92 12.5 7.89 12.5 7.87 12.49 7.86 12.47 7.83 12.47 7.81 12.46 7.8 12.45 7.78 12.43 7.75 12.42 7.74 12.42 7.72 12.4 7.71 12.39 7.69 12.37 7.67 12.36 7.66 12.34 7.63 12.33 7.61 12.31 7.6 12.3 7.58 12.29 7.57 12.27 7.57 12.26 7.55 12.23 7.54 12.21 7.52 12.2 7.51 12.18 7.49 12.17 7.48 12.15 7.48 12.13 7.46 12.11 7.44 12.1 7.44 12.07 7.43 12.06 7.42 12.04 7.42 12.02 7.4 11.99 7.4 11.98 7.4 11.95 7.38 11.94 7.38 11.91 7.37 11.89 7.37 11.88 7.37 11.85 7.37 11.84 7.37 11.81 7.35 11.79 7.35 11.76 7.35 11.75 7.35 11.72 7.35 11.71 7.35 11.68 7.35 11.66 7.35 11.63 7.35 11.62 7.35 11.59 7.35 11.57 7.35 11.55 7.35 11.53 7.37 11.5 7.37 11.49 7.37 11.46 7.38 11.44 7.38 11.41 7.38 11.4 7.4 11.37 7.4 11.36 7.42 11.34 7.43 11.32 7.43 11.3 7.44 11.27 7.46 11.26 7.46 11.24 7.48 11.21 7.49 11.2 7.51 11.18 7.52 11.17 7.54 11.16 7.55 11.13 7.57 11.11 7.58 11.1 7.6 11.08 7.61 11.07 7.63 11.05 7.64 11.04 7.67 11.02 7.69 11.01 7.71 11 7.74 11 7.75 10.98 7.77 10.97 7.8 10.95 7.81 10.94 7.84 10.94 7.86 10.92 7.89 10.91 7.9 10.89 7.93 10.89 7.95 10.88 7.98 10.88 8.01 10.86 8.02 10.86 8.06 10.85 8.07 10.85 8.1 10.83 8.13 10.83 8.15 10.83 8.18 10.82 8.21 10.82 8.22 10.82 8.25 10.82 8.27 10.82 8.3 10.8 8.33 10.8 8.35 10.8 8.38 10.8 8.42 11.26 8.42 11.26 8.38 11.26 8.35 11.26 8.32 11.26 8.29 11.26 8.25 11.26 8.22 11.26 8.21 11.27 8.18 11.27 8.15 11.27 8.13 11.27 8.12 11.28 8.1 11.28 8.09 11.28 8.07 11.3 8.06 11.3 8.04 11.32 8.02 11.32 8.01 11.33 7.99 11.34 7.99 11.34 7.98 11.36 7.96 11.36 7.95 11.37 7.95 11.39 7.93 11.39 7.92 11.4 7.92 11.41 7.9 11.43 7.89 11.44 7.87 11.46 7.87 11.47 7.86 11.49 7.86 11.5 7.84 11.52 7.84 11.53 7.83 11.55 7.83 11.56 7.83 11.57 7.81 11.59 7.81 11.6 7.81 11.62 7.81 11.63 7.81 11.65 7.81 11.66 7.8 11.68 7.8 11.69 7.8 11.71 7.8 11.72 7.8 11.73 7.8 11.75 7.81 11.76 7.81 11.78 7.81 11.79 7.81 11.81 7.81 11.82 7.83 11.84 7.83 11.85 7.83 11.87 7.84 11.88 7.84 11.89 7.84 11.91 7.86 11.92 7.86 11.94 7.87 11.95 7.89 11.97 7.89 11.97 7.9 11.98 7.9 11.99 7.9 11.99 7.92 12.01 7.92 12.01 7.93 12.02 7.93 12.02 7.95 12.04 7.95 12.04 7.96 12.06 7.96 12.06 7.98 12.07 7.99 12.07 8.01 12.08 8.01 12.08 8.02 12.1 8.04 12.1 8.06 12.11 8.07 12.11 8.09 12.11 8.1 12.13 8.1 12.13 8.12 12.13 8.13 12.13 8.15 12.13 8.16 12.14 8.18 12.14 8.19 12.14 8.21 12.14 8.22 12.14 8.24 12.14 8.25 12.13 8.27 12.13 8.29 12.13 8.3 12.13 8.32 12.13 8.33 12.11 8.35 12.11 8.36 12.11 8.38 12.11 8.39 12.1 8.39 12.1 8.41 12.1 8.42 12.08 8.44 12.08 8.45 12.07 8.47 12.07 8.48 12.06 8.48 12.06 8.5 12.04 8.51 12.02 8.53 12.02 8.54 11.99 8.58 11.97 8.62 11.94 8.65 11.91 8.68 11.88 8.73 11.84 8.76 11.81 8.79 11.78 8.82 10.79 9.78 10.79 10.16 10.85 10.16 12.61 10.16 12.61 9.81"/>
    <polygon class="cls-1" points="16.8 9.39 16.8 9.35 16.8 9.34 16.8 9.3 16.78 9.26 16.78 9.24 16.78 9.2 16.76 9.17 16.76 9.14 16.74 9.11 16.73 9.07 16.73 9.05 16.71 9.01 16.69 9 16.68 8.96 16.68 8.94 16.65 8.92 16.64 8.88 16.62 8.86 16.6 8.85 16.59 8.81 16.57 8.79 16.55 8.77 16.53 8.75 16.51 8.71 16.49 8.7 16.46 8.68 16.44 8.66 16.43 8.64 16.41 8.62 16.41 8.6 16.43 8.6 16.44 8.58 16.44 8.57 16.46 8.55 16.48 8.53 16.49 8.51 16.51 8.49 16.51 8.47 16.53 8.45 16.53 8.43 16.55 8.42 16.55 8.4 16.57 8.38 16.57 8.36 16.59 8.34 16.59 8.32 16.59 8.3 16.6 8.28 16.6 8.27 16.6 8.25 16.62 8.21 16.62 8.19 16.62 8.17 16.62 8.15 16.64 8.14 16.64 8.09 16.64 8.08 16.64 8.06 16.64 8.04 16.64 8.02 16.64 7.98 16.64 7.96 16.64 7.95 16.64 7.93 16.64 7.91 16.64 7.87 16.62 7.85 16.62 7.83 16.62 7.82 16.62 7.8 16.6 7.76 16.6 7.74 16.6 7.72 16.59 7.7 16.59 7.68 16.57 7.65 16.57 7.63 16.55 7.61 16.55 7.59 16.53 7.57 16.51 7.55 16.51 7.53 16.49 7.51 16.48 7.5 16.48 7.48 16.46 7.46 16.44 7.44 16.43 7.42 16.41 7.4 16.39 7.38 16.37 7.36 16.35 7.35 16.34 7.33 16.32 7.33 16.3 7.31 16.28 7.29 16.26 7.29 16.25 7.27 16.23 7.25 16.21 7.25 16.19 7.23 16.17 7.23 16.16 7.21 16.14 7.2 16.12 7.2 16.1 7.2 16.09 7.18 16.05 7.18 16.03 7.16 16.01 7.16 16 7.16 15.98 7.14 15.96 7.14 15.92 7.14 15.91 7.14 15.89 7.14 15.87 7.12 15.85 7.12 15.82 7.12 15.8 7.12 15.78 7.12 15.77 7.12 15.75 7.12 15.73 7.12 15.69 7.12 15.68 7.12 15.66 7.12 15.64 7.12 15.62 7.12 15.6 7.12 15.57 7.14 15.55 7.14 15.53 7.14 15.52 7.14 15.5 7.16 15.46 7.16 15.44 7.16 15.43 7.18 15.41 7.18 15.39 7.2 15.37 7.2 15.36 7.21 15.34 7.21 15.32 7.23 15.29 7.25 15.27 7.25 15.25 7.27 15.25 7.29 15.23 7.29 15.22 7.31 15.2 7.33 15.18 7.35 15.16 7.36 15.14 7.38 15.12 7.38 15.12 7.4 15.11 7.44 15.09 7.46 15.07 7.48 15.07 7.5 15.05 7.51 15.03 7.53 15.01 7.55 15.01 7.59 15 7.61 14.98 7.63 14.98 7.65 14.96 7.66 14.96 7.7 14.95 7.72 14.95 7.74 14.93 7.76 14.93 7.8 14.91 7.82 14.91 7.83 14.89 7.87 14.89 7.89 14.89 7.91 14.87 7.95 14.87 7.96 14.87 7.98 14.86 8.02 14.86 8.04 14.86 8.06 14.86 8.09 14.86 8.12 14.84 8.14 14.84 8.21 15.37 8.21 15.37 8.15 15.37 8.14 15.39 8.12 15.39 8.09 15.39 8.08 15.39 8.06 15.39 8.04 15.39 8.02 15.41 8 15.41 7.98 15.41 7.96 15.43 7.95 15.43 7.93 15.43 7.91 15.44 7.89 15.44 7.87 15.46 7.87 15.46 7.85 15.46 7.83 15.48 7.83 15.48 7.82 15.5 7.8 15.52 7.78 15.52 7.76 15.53 7.76 15.55 7.74 15.57 7.72 15.59 7.72 15.59 7.7 15.6 7.7 15.62 7.7 15.64 7.68 15.66 7.68 15.68 7.68 15.69 7.68 15.71 7.68 15.73 7.68 15.75 7.68 15.77 7.68 15.78 7.68 15.8 7.68 15.82 7.68 15.84 7.68 15.84 7.7 15.85 7.7 15.87 7.7 15.89 7.7 15.89 7.72 15.91 7.72 15.92 7.74 15.94 7.74 15.96 7.76 15.98 7.78 16 7.78 16 7.8 16.01 7.8 16.01 7.82 16.03 7.83 16.03 7.85 16.05 7.85 16.05 7.87 16.05 7.89 16.07 7.89 16.07 7.91 16.07 7.93 16.09 7.95 16.09 7.96 16.09 7.98 16.09 8 16.09 8.02 16.09 8.04 16.09 8.06 16.09 8.08 16.09 8.09 16.09 8.12 16.09 8.14 16.07 8.14 16.07 8.15 16.07 8.17 16.05 8.19 16.05 8.21 16.03 8.21 16.03 8.23 16.01 8.25 16 8.27 15.98 8.27 15.98 8.28 15.96 8.28 15.96 8.3 15.94 8.3 15.91 8.32 15.89 8.32 15.85 8.34 15.84 8.34 15.8 8.36 15.77 8.36 15.75 8.38 15.71 8.38 15.68 8.38 15.64 8.4 15.62 8.4 15.59 8.4 15.55 8.4 15.53 8.4 15.5 8.4 15.46 8.4 15.41 8.4 15.41 8.94 15.75 8.94 15.77 8.94 15.78 8.94 15.8 8.94 15.82 8.94 15.84 8.94 15.85 8.96 15.87 8.96 15.89 8.96 15.91 8.96 15.92 8.98 15.94 8.98 15.96 9 15.98 9 16 9.01 16.01 9.01 16.03 9.03 16.05 9.03 16.05 9.05 16.07 9.05 16.07 9.07 16.09 9.07 16.1 9.09 16.12 9.11 16.14 9.13 16.16 9.14 16.16 9.17 16.17 9.17 16.17 9.18 16.19 9.18 16.19 9.2 16.21 9.22 16.21 9.24 16.23 9.24 16.23 9.26 16.23 9.28 16.25 9.28 16.25 9.3 16.25 9.31 16.25 9.34 16.26 9.34 16.26 9.35 16.26 9.37 16.26 9.39 16.26 9.41 16.28 9.43 16.28 9.45 16.28 9.47 16.28 9.48 16.28 9.5 16.28 9.52 16.28 9.54 16.28 9.56 16.26 9.58 16.26 9.6 16.26 9.62 16.26 9.63 16.26 9.65 16.25 9.67 16.25 9.69 16.25 9.71 16.23 9.73 16.23 9.74 16.21 9.77 16.21 9.79 16.19 9.8 16.17 9.82 16.17 9.84 16.16 9.84 16.16 9.86 16.14 9.88 16.12 9.9 16.12 9.92 16.1 9.92 16.09 9.93 16.07 9.95 16.05 9.97 16.03 9.97 16.03 9.99 16.01 9.99 16 10.01 15.98 10.01 15.96 10.03 15.94 10.03 15.92 10.04 15.91 10.04 15.89 10.04 15.89 10.06 15.87 10.06 15.85 10.06 15.84 10.06 15.82 10.06 15.82 10.08 15.8 10.08 15.78 10.08 15.77 10.08 15.75 10.08 15.73 10.08 15.71 10.08 15.69 10.08 15.68 10.08 15.66 10.08 15.64 10.08 15.62 10.06 15.6 10.06 15.59 10.06 15.57 10.06 15.55 10.04 15.53 10.04 15.52 10.03 15.5 10.03 15.48 10.01 15.46 10.01 15.44 9.99 15.43 9.99 15.41 9.97 15.39 9.95 15.37 9.93 15.36 9.93 15.36 9.92 15.34 9.9 15.32 9.9 15.32 9.88 15.3 9.86 15.29 9.86 15.29 9.84 15.27 9.82 15.27 9.8 15.25 9.79 15.25 9.77 15.23 9.74 15.23 9.73 15.22 9.71 15.22 9.69 15.22 9.67 15.2 9.6 15.2 9.54 15.18 9.47 15.18 9.41 15.18 9.35 14.63 9.35 14.64 9.41 14.64 9.45 14.64 9.48 14.64 9.5 14.64 9.54 14.64 9.56 14.64 9.6 14.66 9.62 14.66 9.65 14.66 9.69 14.68 9.71 14.68 9.74 14.7 9.77 14.7 9.8 14.72 9.82 14.72 9.86 14.73 9.9 14.75 9.92 14.75 9.95 14.77 9.97 14.79 9.99 14.79 10.03 14.8 10.04 14.82 10.08 14.84 10.1 14.86 10.12 14.87 10.16 14.87 10.18 14.89 10.2 14.91 10.23 14.93 10.25 14.95 10.27 14.96 10.29 14.98 10.31 15 10.33 15.01 10.35 15.03 10.37 15.07 10.38 15.09 10.4 15.11 10.42 15.12 10.44 15.14 10.46 15.16 10.48 15.2 10.5 15.22 10.5 15.23 10.52 15.25 10.53 15.29 10.53 15.3 10.55 15.32 10.57 15.36 10.57 15.37 10.59 15.41 10.59 15.43 10.59 15.44 10.61 15.48 10.61 15.5 10.61 15.53 10.63 15.55 10.63 15.59 10.63 15.6 10.63 15.62 10.63 15.66 10.63 15.68 10.63 15.71 10.63 15.73 10.63 15.77 10.63 15.78 10.63 15.82 10.63 15.84 10.63 15.87 10.63 15.89 10.63 15.92 10.61 15.94 10.61 15.98 10.61 16 10.59 16.03 10.59 16.05 10.57 16.07 10.57 16.1 10.55 16.12 10.55 16.16 10.53 16.17 10.53 16.19 10.52 16.23 10.5 16.25 10.5 16.28 10.48 16.3 10.46 16.32 10.44 16.34 10.42 16.37 10.4 16.39 10.4 16.41 10.38 16.43 10.37 16.44 10.35 16.48 10.33 16.49 10.31 16.51 10.29 16.53 10.27 16.55 10.23 16.57 10.21 16.59 10.2 16.59 10.18 16.6 10.16 16.62 10.14 16.64 10.1 16.65 10.08 16.68 10.06 16.68 10.03 16.69 10.01 16.71 9.99 16.71 9.95 16.73 9.93 16.73 9.9 16.74 9.88 16.74 9.86 16.76 9.82 16.76 9.8 16.78 9.77 16.78 9.74 16.78 9.71 16.8 9.69 16.8 9.65 16.8 9.63 16.8 9.6 16.8 9.58 16.82 9.54 16.82 9.52 16.82 9.48 16.82 9.47 16.82 9.43 16.8 9.39"/>
  </g>
</svg>