<?xml version="1.0" encoding="UTF-8"?>
<svg id="_圖層_2" data-name="圖層 2" xmlns="http://www.w3.org/2000/svg" viewBox="0 0 18.95 18.95">
  <defs>
    <style>
      .cls-1 {
        fill: #3e3a39;
      }
    </style>
  </defs>
  <g id="_圖層_1-2" data-name="圖層 1">
    <path class="cls-1" d="M9.47,0C4.25,0,0,4.25,0,9.47s4.25,9.47,9.47,9.47,9.47-4.25,9.47-9.47S14.7,0,9.47,0M7.24,16.61c0-.17.04-.31.12-.43.09-.13.17-.15.23-.15.05,0,.13.01.21.12.09.11.13.25.14.42l.05,1.31c-.24-.04-.48-.1-.71-.16l-.04-1.12ZM5.62,17.09v-.43c0-.17.04-.31.12-.43.09-.13.17-.14.24-.15.07-.01.13,0,.22.12.09.11.13.25.13.42l.03.79c-.25-.1-.5-.21-.74-.33M8.93,17.99l-.06-1.45c0-.17.04-.31.12-.43.09-.13.17-.14.23-.15.06-.01.14,0,.23.12.09.11.14.25.14.42l.04,1.5s-.1,0-.15,0c-.18,0-.37-.02-.55-.03M10.43,14.01c0-.17.03-.31.12-.43.08-.12.15-.14.22-.14.06,0,.13.01.23.12.09.11.14.24.14.41l.07,3.87c-.22.05-.45.08-.68.11l-.09-3.93ZM11.78,17.7l-.07-3.73c0-.29-.09-.55-.27-.76-.24-.29-.51-.33-.69-.33-.19,0-.46.08-.67.39-.16.22-.23.48-.23.77l.04,1.71h0c-.24-.3-.51-.34-.7-.34-.19,0-.45.08-.68.39-.05.07-.09.14-.12.22-.04-.07-.08-.14-.13-.2-.23-.29-.51-.33-.69-.34-.18,0-.45.08-.67.39-.05.06-.09.13-.12.21-.03-.07-.08-.13-.12-.19-.23-.3-.49-.34-.7-.34-.19,0-.46.08-.68.39-.16.23-.24.49-.23.77v.1C2.58,15.27.92,12.56.92,9.47.92,4.76,4.76.92,9.47.92s8.55,3.83,8.55,8.55c0,3.91-2.65,7.21-6.24,8.22"/>
    <rect class="cls-1" x="5.94" y="4.99" width="1.86" height="1.85"/>
    <rect class="cls-1" x="8.47" y="4.99" width="1.85" height="1.85"/>
    <rect class="cls-1" x="11" y="4.99" width="1.85" height="1.85"/>
    <rect class="cls-1" x="5.94" y="7.69" width="1.86" height="1.85"/>
    <rect class="cls-1" x="8.47" y="7.69" width="1.85" height="1.85"/>
    <rect class="cls-1" x="11" y="7.69" width="1.85" height="1.85"/>
    <rect class="cls-1" x="5.94" y="10.47" width="1.86" height="1.85"/>
    <rect class="cls-1" x="8.47" y="10.47" width="1.85" height="1.85"/>
    <rect class="cls-1" x="11" y="10.47" width="1.85" height="1.85"/>
    <path class="cls-1" d="M13.78,2.87H5.11c-.59,0-1.08.48-1.08,1.08v9.18c0,.6.48,1.08,1.08,1.08h4.21v-.77h-4.21c-.17,0-.31-.14-.31-.31V3.95c0-.17.14-.31.31-.31h8.66c.17,0,.31.14.31.31v9.18c0,.17-.14.31-.31.31h-1.59v.77h1.59c.59,0,1.08-.48,1.08-1.08V3.95c0-.6-.48-1.08-1.08-1.08"/>
  </g>
</svg>