<?xml version="1.0" encoding="UTF-8"?>
<svg id="_圖層_2" data-name="圖層 2" xmlns="http://www.w3.org/2000/svg" viewBox="0 0 18.93 18.92">
  <defs>
    <style>
      .cls-1 {
        fill: #3e3a39;
      }
    </style>
  </defs>
  <g id="_圖層_1-2" data-name="圖層 1">
    <path class="cls-1" d="M9.46,0C4.25,0,0,4.24,0,9.46s4.25,9.46,9.46,9.46,9.46-4.24,9.46-9.46S14.68,0,9.46,0M9.46,18C4.75,18,.92,14.17.92,9.46S4.75.92,9.46.92s8.54,3.83,8.54,8.54-3.83,8.54-8.54,8.54"/>
    <path class="cls-1" d="M14.95,9.78c0-.97-.48-1.89-1.28-2.44-.12-.09-.3-.06-.39.07-.08.13-.06.3.07.39.65.45,1.04,1.19,1.04,1.98s-.39,1.53-1.04,1.99c-.13.09-.16.26-.07.39.09.13.26.16.39.07.81-.56,1.29-1.47,1.29-2.44Z"/>
    <path class="cls-1" d="M14.29,6.44c-.13-.09-.3-.06-.39.07-.09.13-.06.3.07.39.95.66,1.52,1.74,1.52,2.89s-.57,2.23-1.52,2.89c-.13.09-.16.26-.07.39.09.12.26.16.39.07,1.1-.76,1.76-2.01,1.76-3.35s-.66-2.58-1.76-3.35Z"/>
    <path class="cls-1" d="M4.54,9.78c0-.79.39-1.53,1.04-1.98.13-.09.16-.26.07-.39-.09-.13-.26-.16-.39-.07-.8.56-1.28,1.47-1.28,2.44s.48,1.89,1.28,2.44c.13.09.3.06.39-.07.09-.13.06-.3-.07-.39-.65-.45-1.04-1.2-1.04-1.99Z"/>
    <path class="cls-1" d="M3.43,9.78c0-1.15.57-2.23,1.52-2.89.13-.09.16-.26.07-.39-.09-.13-.26-.16-.39-.07-1.1.76-1.76,2.01-1.76,3.35s.66,2.58,1.76,3.35c.13.09.3.06.39-.07.09-.13.06-.3-.07-.39-.95-.66-1.52-1.74-1.52-2.89Z"/>
    <path class="cls-1" d="M9.49,8.74c2.12.02,4.11.51,4.11.51-.23-.06-1.3-.93-2.2-1.38-.85-.47-1.19-.23-1.19-.23l-.67.56s-.37-.71-1.15-.51c-.81.2-2.87,1.88-2.87,1.88,0,0,2.53-.85,3.97-.83Z"/>
    <path class="cls-1" d="M9.39,10.76c-1.36,0-3.8-.95-3.8-.95.98,1.37,1.61,2.59,3.83,2.56,3.06-.05,4.16-3.04,4.16-3.04,0,0-2.82,1.44-4.19,1.44Z"/>
  </g>
</svg>