<?xml version="1.0" encoding="UTF-8"?>
<svg id="_圖層_2" data-name="圖層 2" xmlns="http://www.w3.org/2000/svg" viewBox="0 0 18.98 18.99">
  <defs>
    <style>
      .cls-1 {
        fill: none;
        stroke: #3e3a39;
        stroke-miterlimit: 10;
        stroke-width: .61px;
      }

      .cls-2 {
        fill: #3e3a39;
      }
    </style>
  </defs>
  <g id="_圖層_1-2" data-name="圖層 1">
    <path class="cls-2" d="M9.49,0C4.26,0,0,4.26,0,9.49s4.26,9.49,9.49,9.49,9.49-4.26,9.49-9.49S14.73,0,9.49,0M9.49,18.06C4.77,18.06.93,14.22.93,9.49S4.77.93,9.49.93s8.57,3.84,8.57,8.57-3.84,8.57-8.57,8.57"/>
    <line class="cls-1" x1="14.57" y1="8.01" x2="13.54" y2="8.01"/>
    <line class="cls-1" x1="4.24" y1="8.09" x2="5.27" y2="8.08"/>
    <line class="cls-1" x1="13.09" y1="11.67" x2="12.35" y2="10.95"/>
    <line class="cls-1" x1="5.73" y1="4.42" x2="6.46" y2="5.15"/>
    <line class="cls-1" x1="13.03" y1="4.37" x2="12.31" y2="5.1"/>
    <line class="cls-1" x1="5.78" y1="11.73" x2="6.51" y2="10.99"/>
    <line class="cls-1" x1="9.37" y1="2.88" x2="9.38" y2="3.91"/>
    <line class="cls-1" x1="9.4" y1="7.05" x2="9.43" y2="11.17"/>
    <path class="cls-1" d="M7.98,5c-.45,0-.91.37-1.03.8l-1.43,5.62c-.11.44.17.8.62.79l6.59-.05c.45,0,.73-.36.61-.8l-1.51-5.6c-.12-.44-.59-.79-1.04-.79l-2.81.02Z"/>
    <path class="cls-1" d="M7.98,5c-.45,0-.91.37-1.03.8l-1.63,6.42s.37,0,.82,0l6.59-.05c.45,0,.82,0,.82,0l-1.73-6.4c-.12-.44-.59-.79-1.04-.79l-2.81.02Z"/>
    <path class="cls-1" d="M13.49,12.17c.6,0,1.1.45,1.1,1.02,0,.57-.48,1.03-1.08,1.04l-8.11.06c-.6,0-1.1-.45-1.1-1.02,0-.57.48-1.03,1.08-1.04l8.11-.06Z"/>
    <line class="cls-1" x1="8.16" y1="6.03" x2="7.12" y2="10.16"/>
  </g>
</svg>