<svg viewBox="100 100 300 300" fill="currentColor" xmlns="http://www.w3.org/2000/svg">
<path d="M400,269.9c0-14.5-11.8-26.4-26.4-26.4h-28.5c-3.6-10.2-13.4-17.6-24.9-17.6h-35.2c-11.5,0-21.2,7.3-24.9,17.6
	H135.7v-99.6c0-14.5,11.8-26.4,26.4-26.4h17.6c11.9,0,21.9,7.9,25.2,18.7c-19.5,4.5-34,22-34,42.8v8.8h87.9v-8.8
	c0-21.5-15.5-39.4-35.9-43.2c-3.8-20.4-21.7-35.9-43.2-35.9h-17.6c-24.2,0-43.9,19.7-43.9,43.9v100.9c-10.5,3.5-18.2,13.4-18.2,25.1
	s7.6,21.6,18.2,25.1v27.7c0,23,12.7,43.1,31.4,53.6l-11.3,11.3l12.4,12.4l17-17c3.9,0.8,7.9,1.2,12,1.2h140.6c4.1,0,8.1-0.4,12-1.2
	l17,17l12.4-12.4l-11.3-11.3c18.7-10.6,31.4-30.6,31.4-53.6V295C392.4,291.5,400,281.6,400,269.9L400,269.9z M239.7,170.3H190
	c3.6-10.2,13.4-17.6,24.9-17.6S236.1,160.1,239.7,170.3z M276.4,252.3c0-4.8,3.9-8.8,8.8-8.8h35.2c4.8,0,8.8,3.9,8.8,8.8v43.9h-52.7
	V252.3z M126.4,261.1h132.4v17.6H126.4c-4.8,0-8.8-3.9-8.8-8.8S121.5,261.1,126.4,261.1z M320.3,366.6H179.7
	c-24.2,0-43.9-19.7-43.9-43.9v-26.4h123v17.6h87.9v-17.6h17.6v26.4C364.3,346.9,344.5,366.6,320.3,366.6z M373.6,278.7h-27v-17.6h27
	c4.8,0,8.8,3.9,8.8,8.8S378.5,278.7,373.6,278.7z"/>
</svg>
