<svg viewBox="100 100 300 300" fill="currentColor" xmlns="http://www.w3.org/2000/svg">
<g>
	<!-- 外框 -->
	<path d="M380,120H120c-11,0-20,9-20,20v220c0,11,9,20,20,20h260c11,0,20-9,20-20V140C400,129,391,120,380,120z M382.5,360
		c0,1.4-1.1,2.5-2.5,2.5H120c-1.4,0-2.5-1.1-2.5-2.5V140c0-1.4,1.1-2.5,2.5-2.5h260c1.4,0,2.5,1.1,2.5,2.5V360z"/>
	<!-- 橫線 -->
	<rect x="117.5" y="195" width="265" height="17.6"/>
	<rect x="117.5" y="270" width="265" height="17.6"/>
	<!-- 第一排縱線 -->
	<rect x="200" y="137.5" width="17.6" height="57.5"/>
	<rect x="282.4" y="137.5" width="17.6" height="57.5"/>
	<!-- 第二排縱線 -->
	<rect x="158.8" y="212.6" width="17.6" height="57.4"/>
	<rect x="241.2" y="212.6" width="17.6" height="57.4"/>
	<rect x="323.6" y="212.6" width="17.6" height="57.4"/>
	<!-- 第三排縱線 -->
	<rect x="200" y="287.6" width="17.6" height="57.4"/>
	<rect x="282.4" y="287.6" width="17.6" height="57.4"/>
</g>
</svg>
