<svg viewBox="100 100 300 300" fill="currentColor" xmlns="http://www.w3.org/2000/svg">
<g>
	<path d="M373.6,223c-6.5,0-239.8,0-247.3,0c-14.5,0-26.4,11.8-26.4,26.4c0,21.2,15.1,39,35.2,43.1v63.6
		c0,24.2,19.7,43.9,43.9,43.9h141.8c24.2,0,43.9-19.7,43.9-43.9v-63.6c20-4.1,35.2-21.8,35.2-43.1C400,234.9,388.2,223,373.6,223
		L373.6,223z M117.6,249.4c0-4.8,3.9-8.8,8.8-8.8h8.8v33.6C124.9,270.6,117.6,260.9,117.6,249.4L117.6,249.4z M347.3,356.1
		c0,14.5-11.8,26.4-26.4,26.4H179.1c-14.5,0-26.4-11.8-26.4-26.4V240.6h194.5V356.1z M364.8,274.3v-33.6h8.8c4.8,0,8.8,3.9,8.8,8.8
		C382.4,260.9,375.1,270.6,364.8,274.3z"/>
	<path d="M136.5,200.3c2,4.4,7.2,6.4,11.7,4.3l191.6-87.9c4.4-2,6.3-7.2,4.3-11.7c-2-4.4-7.2-6.3-11.7-4.3l-63.8,29.3
		l-0.1-0.2c-8.1-17.6-29-25.3-46.6-17.2c-17.6,8.1-25.3,29-17.2,46.6l0,0.1l-63.9,29.3C136.5,190.7,134.5,195.9,136.5,200.3
		L136.5,200.3z M220.7,151.9c-4.1-8.8-0.2-19.3,8.6-23.3c8.8-4.1,19.3-0.2,23.3,8.6l0.1,0.2l-32,14.7L220.7,151.9z"/>
	<path d="M343.7,147c0-4.9-3.9-8.8-8.8-8.8c-1.6,0-16.3,0.2-24.9,8.8c-8.5,8.5-8.8,23.2-8.8,24.9
		c0,3.1-1.1,9.9-3.6,12.4c-2.4,2.4-8.9,3.6-12.4,3.6c-4.9,0-8.8,3.9-8.8,8.8c0,4.9,3.9,8.8,8.8,8.8c1.6,0,16.3-0.2,24.9-8.8
		c8.5-8.5,8.8-23.2,8.8-24.8c0-3.6,1.2-10,3.6-12.5c2.4-2.4,8.9-3.6,12.5-3.6C339.7,155.7,343.7,151.8,343.7,147L343.7,147z"/>
	<path d="M337.9,205.5c1.6,0,16.3-0.2,24.9-8.8c8.5-8.5,8.8-23.2,8.8-24.8c0-3.6,1.2-10,3.6-12.5
		c2.4-2.4,8.9-3.6,12.5-3.6c4.8,0,8.8-3.9,8.8-8.8c0-4.9-3.9-8.8-8.8-8.8c-1.6,0-16.3,0.2-24.9,8.8c-8.5,8.5-8.8,23.2-8.8,24.9
		c0,3.1-1.1,9.9-3.6,12.4c-2.4,2.4-8.9,3.6-12.4,3.6c-4.9,0-8.8,3.9-8.8,8.8C329.1,201.5,333,205.5,337.9,205.5L337.9,205.5z"/>
</g>
</svg>
