<svg viewBox="100 100 300 300" fill="currentColor" xmlns="http://www.w3.org/2000/svg">
<g>
	<path d="M326.2,264.1h-90.8V161.5c0-33.9-27.6-61.5-61.5-61.5s-61.5,27.6-61.5,61.5v177c0,33.9,27.6,61.5,61.5,61.5
		s61.5-27.6,61.5-61.5v-21.7h90.8c14.5,0,26.4-11.8,26.4-26.4S340.7,264.1,326.2,264.1z M217.8,338.5c0,24.2-19.7,43.9-43.9,43.9
		s-43.9-19.7-43.9-43.9v-177c0-24.2,19.7-43.9,43.9-43.9s43.9,19.7,43.9,43.9v102.5h-43.9c-14.5,0-26.4,11.8-26.4,26.4
		s11.8,26.4,26.4,26.4h43.9V338.5z M326.2,299.2H173.8c-4.8,0-8.8-3.9-8.8-8.8s3.9-8.8,8.8-8.8h152.3c4.8,0,8.8,3.9,8.8,8.8
		S331,299.2,326.2,299.2z"/>
	<path d="M165,186.4v16.2c0,4.9,3.9,8.8,8.8,8.8s8.8-3.9,8.8-8.8v-16.2c10.2-3.6,17.6-13.4,17.6-24.9
		c0-14.5-11.8-26.4-26.4-26.4s-26.4,11.8-26.4,26.4C147.5,173,154.8,182.8,165,186.4z M173.8,152.7c4.8,0,8.8,3.9,8.8,8.8
		s-3.9,8.8-8.8,8.8s-8.8-3.9-8.8-8.8S169,152.7,173.8,152.7z"/>
	<circle cx="191.4" cy="237.7" r="8.8"/>
	<circle cx="156.2" cy="237.7" r="8.8"/>
	<circle cx="308.6" cy="202.5" r="8.8"/>
	<path d="M327.2,233.6c1.7,1.7,4,2.6,6.2,2.6s4.5-0.9,6.2-2.6c17.1-17.1,17.1-45,0-62.1c-3.4-3.4-9-3.4-12.4,0
		c-3.4,3.4-3.4,9,0,12.4c10.3,10.3,10.3,27,0,37.3C323.8,224.6,323.8,230.2,327.2,233.6L327.2,233.6z"/>
	<path d="M364.5,146.6c-3.4-3.4-9-3.4-12.4,0c-3.4,3.4-3.4,9,0,12.4c11.6,11.6,18,27.1,18,43.5s-6.4,31.9-18,43.5
		c-3.4,3.4-3.4,9,0,12.4c1.7,1.7,4,2.6,6.2,2.6c2.2,0,4.5-0.9,6.2-2.6c14.9-14.9,23.2-34.8,23.2-55.9S379.5,161.5,364.5,146.6
		L364.5,146.6z"/>
</g>
</svg>
