<svg viewBox="100 100 300 300" fill="currentColor" xmlns="http://www.w3.org/2000/svg">
<g>
	<!-- 外層水滴 -->
	<path d="M250,110c0,0-100,100-100,170c0,55.2,44.8,100,100,100s100-44.8,100-100C350,210,250,110,250,110z M250,362.5
		c-45.6,0-82.5-36.9-82.5-82.5c0-58.5,82.5-147.2,82.5-147.2s82.5,88.7,82.5,147.2C332.5,325.6,295.6,362.5,250,362.5z"/>
	<!-- 內層水滴 -->
	<path d="M250,200c0,0-50,50-50,85c0,27.6,22.4,50,50,50s50-22.4,50-50C300,250,250,200,250,200z"/>
	<!-- 中心圓點 -->
	<circle cx="250" cy="300" r="15"/>
</g>
</svg>
