<?xml version="1.0" encoding="UTF-8"?>
<svg id="_圖層_2" data-name="圖層 2" xmlns="http://www.w3.org/2000/svg" viewBox="0 0 87.52 39.46">
  <defs>
    <style>
      .cls-1 {
        fill: #68583f;
      }

      .cls-2 {
        fill: #040000;
        stroke: #040000;
        stroke-miterlimit: 10;
        stroke-width: .1px;
      }
    </style>
  </defs>
  <g id="_交通" data-name="交通">
    <g>
      <g>
        <path class="cls-2" d="M20.26,7.48h-1.2v-.62c-.71.17-3.91.73-4.55.87-.08.11-.22.35-.33.35-.13,0-.22-.24-.25-.35l-.29-.92c.35.03,1.31-.06,1.46-.08V1.54h-1.16v-.57h6.95v.57h-.63v5.94ZM13.72,11.55c.57-.49,2.39-2.08,2.8-3.74l1.03.6c.11.06.29.17.29.27,0,.14-.24.25-.48.36-1.06,1.19-1.6,1.7-2.98,2.9l-.66-.4ZM14.12,14.27c2.34-1.35,3.64-3.26,3.96-4.04l1.03.55c.1.05.24.13.24.21,0,.13-.11.16-.41.24-.89,1.09-2.82,2.69-4.2,3.42l-.62-.38ZM19.06,1.54h-2.82v1.31h2.82v-1.31ZM19.06,3.43h-2.82v1.27h2.82v-1.27ZM19.06,5.25h-2.82v1.38c2.09-.25,2.33-.29,2.82-.36v-1.01ZM17.85,9.21c3.1-.47,5.19-1.31,5.97-2.2l.84.74c.14.13.22.21.22.27,0,.14-.22.16-.51.21-.43.17-1.55.62-2.91.97v.19c.65,1.03,1.09,1.54,1.3,1.76.1-.05,1.95-1.01,3.09-2.3l.97.65c.21.14.24.19.24.25,0,.19-.32.24-.55.27-1.46.92-2.69,1.49-3.18,1.71,1.66,1.62,3.52,2.01,4.26,2.19l-.48.55c-2.95-.86-4.28-1.88-5.64-3.45v3.77h-1.16v-5.34c-.87.17-1.57.27-2.09.33l-.36-.57ZM20.59,6.83c.59-.21,1.66-.59,2.98-1.71-1.03-1.16-1.44-2.25-1.58-2.68l1.06-.62c.11.41.4,1.58,1.19,2.65.79-.89,1.39-1.84,1.77-2.93h-4.5v-.57h6.15c-.46,1.42-1.47,2.93-2.85,4.15.7.7,2.06,1.62,3.42,1.93l-.36.55c-1.76-.46-3.02-1.3-3.74-1.93-1.01.76-1.88,1.2-3.07,1.63l-.46-.47Z"/>
        <path class="cls-2" d="M39.11,5.31v7.29h-3.01v1.41h-1.19v-6.37c-.4.59-.62.9-1.38,1.79l-.48-.33c2.11-2.6,2.66-5.29,2.88-7.59h-2.22v-.57h5.89v.57h-2.39c-.19,1.5-.62,2.71-1.06,3.8h2.95ZM37.91,5.88h-1.81v6.13h1.81v-6.13ZM39.11,14.29c1.2-.7,2.25-1.52,2.8-2.9l1.05.78c.13.1.17.13.17.19,0,.08-.03.08-.35.13-.92,1.08-2.34,1.92-3.06,2.22l-.62-.41ZM47.16,3.24v7.95h-6.59V3.24h2.19c.21-.51.41-1.17.49-1.73h-3.22v-.57h7.75v.57h-3.25c-.29.6-.78,1.38-1.01,1.73h3.64ZM45.92,5.5v-1.71h-4.12v1.71h4.12ZM41.8,6.07v1.95h4.12v-1.95h-4.12ZM41.8,8.59v2.04h4.12v-2.04h-4.12ZM45.45,11.49c.66,1.25,1.73,2.3,2.33,2.74l-.54.44c-.81-.49-1.93-1.5-2.71-2.44l.92-.74Z"/>
        <path class="cls-2" d="M56.68,14.84h-1.3V5.42c-.89,1.19-1.62,1.87-2.03,2.25l-.63-.36c2.12-2.11,3.85-5.88,4.15-7.24l1.25.48c.13.05.16.05.16.11,0,.13-.22.33-.3.4-.32.62-.71,1.35-1.3,2.36v11.44ZM67.88,12.87v.57h-10.14v-.57h10.14ZM66.85,2.47v.57h-8.08v-.57h8.08Z"/>
        <path class="cls-2" d="M80.75,7.02h5.27v.57h-5.27v5.94h6.72v.57h-14.38v-.57h6.38v-5.94h-4.94v-.57h4.94V1.51h-5.72v-.55h13.05v.55h-6.05v5.51ZM84.76,11.93c-.55-1.06-1.33-2.01-2.3-2.99l.51-.63c.63.47,2.12,1.73,2.8,2.53l-1.01,1.09Z"/>
      </g>
      <g>
        <path class="cls-1" d="M0,25.79h8.02c-.21-.07-.45-.25-.7-.57-.39-.52-1.02-1.36-1.37-1.79-.18-.2-.02-.38.21-.3.71.23,1.73.59,2.34,1.16.59.54.43,1.32-.04,1.5h5.32c.34,0,.54-.18.89-.55.39.39.7.64.7.86,0,.45-.39.66-1,.66H.77c-.34,0-.43-.21-.77-.96ZM.36,31.74c1.79-1.34,3.45-3.07,4.62-4.77l.82.57c.46.32.48.41.23.68-1.07,1.14-3.2,2.95-5.48,3.86-.27.11-.46-.14-.2-.34ZM15.53,38.45l-.37.32c-.77.66-.86.73-1.75.43-1.11-.38-3.53-1.32-5.53-3.25-1.62,1.55-3.82,2.93-7.25,3.5-.29.05-.45-.27-.14-.38,2.82-1.04,4.89-2.36,6.53-4.09-1.04-1.32-1.93-3.14-2.37-5.04.52-.18.87-.04.95.14.46,1.25,1.36,2.82,2.25,3.93.98-1.32,1.66-3.04,2.11-4.61l.95.59c.43.27.43.34.3.68-.36.93-1.14,2.84-2.39,4.3,1.79,1.59,3.64,2.52,6.69,3.2.18.04.18.16.04.27ZM13,31.03c-1.04-1-2.16-2.16-3.45-3.43-.23-.23-.07-.43.23-.3,1.73.75,3.16,1.61,4.03,2.36,1.14.98.45,2.61-.82,1.37Z"/>
        <path class="cls-1" d="M33.86,37.7c-.36.43-.59.62-.93.95-.23.23-.34.32-.77.36-.96.07-2.2.12-3.27.11-3.34-.05-6.23-.07-7.89-2.87-.54.73-1.21,1.7-1.77,2.27-.61.64-.7.62-1.77-.34,1.05-.66,2.16-1.43,2.82-2.23v-3.66h-1.89c-.25,0-.36-.21-.62-.89h1.96c.29,0,.48-.16.64-.39l.93.29c.86.27.37.66.37,1.04v3.57c1.66,2.09,4.57,1.96,7.27,1.96,1.98,0,3.87-.18,4.75-.34.2-.04.21.12.16.2ZM18.29,27.35c-.12-.12-.07-.37.23-.29.7.21,1.66.54,2.37,1.38.71.84-.09,2.2-.98,1.05-.57-.73-1.16-1.64-1.62-2.14ZM18.97,24.21c-.18-.21-.02-.36.2-.3.91.25,1.5.46,2.14,1.05,1,.91.11,2.34-.82,1.2-.46-.57-1.05-1.43-1.52-1.95ZM22.9,24.06h7.07c.3,0,.57-.11.86-.41l.66.57c.54.46.32.68.07.82-.86.5-1.7.98-3.11,1.62.27.29.32.61.25.84h1.11c.34,0,.52-.12.75-.43l1.09.32c.79.23.29.68.29,1.07v7.77c0,.73-.68,1.21-1.25.73-.46-.39-1.21-.68-1.57-.82-.12-.05-.14-.29.09-.27.45.02,1.05.05,1.25,0,.07-.02.11-.07.11-.16v-2.25h-2.18v2.57c0,.66-.66,1.02-1.36.77v-3.34h-2.18v2.64c0,.7-.68,1.02-1.38.84v-9.89l1.07.2c.21.04.29.14.3.25h2.7c-.59-.54-1.18-1.09-1.79-1.5-.29-.2-.11-.39.14-.34.79.16,1.52.34,2.09.66.73-.54,1.34-1.11,1.59-1.39h-6c-.27,0-.36-.25-.68-.87ZM24.85,28.38v1.7h2.18v-1.7h-2.18ZM27.02,32.6v-1.62h-2.18v1.62h2.18ZM28.38,28.38v1.7h2.18v-1.7h-2.18ZM30.56,32.6v-1.62h-2.18v1.62h2.18Z"/>
        <path class="cls-1" d="M43.83,36.86c-1.55.7-5.27,1.52-6.86,1.86-.52.11-.54.12-1.34-1.12,1.05-.09,2.52-.25,3.95-.43v-1.48h-2.64c-.3,0-.36-.14-.7-.89h3.34v-1.43h-1.55c-.12.48-.71.73-1.34.59v-6.16l1.07.18c.21.04.27.12.29.23h1.54v-1.14h-3.39c-.32,0-.41-.14-.71-.89h4.11v-1.14c-1.23.09-2.46.14-3.32.14-.3,0-.34-.34-.07-.38,1.37-.2,2.48-.41,3.52-.61,1.14-.21,2.07-.45,3.2-.86l.54.66c.32.41.23.55-.29.64-.62.11-1.39.2-2.21.29v1.25h2.29c.29,0,.45-.12.73-.45.39.36.68.48.68.75,0,.41-.32.59-.91.59h-2.79v1.14h.82c.29,0,.48-.11.71-.36l1.07.32c.71.21.29.62.29.93v3.96c0,.66-.7.89-1.36.77v-.46h-1.54v1.43h1.8c.29,0,.48-.2.77-.5.41.39.64.54.64.79,0,.41-.36.61-.95.61h-2.27v1.3c1.12-.14,2.12-.32,2.75-.46.21-.05.34.25.14.34ZM39.59,29.08h-1.54v1.27h1.54v-1.27ZM39.59,32.47v-1.25h-1.54v1.25h1.54ZM40.94,29.08v1.27h1.54v-1.27h-1.54ZM42.48,32.47v-1.25h-1.54v1.25h1.54ZM50.56,28.6c0,2.68-.04,4.5-.23,6.16-.3,2.55-1.07,4.32-2.05,4.52-.64.14-.84-.54-2.05-1.05-.18-.07-.09-.27.09-.27,1.5.07,1.55.05,1.8-.36.32-.52.61-1.36.77-2.55.25-1.88.3-4.45.29-6.5h-1.64c-.05,2.09-.16,3.84-.48,5.2-.57,2.46-1.98,4.64-4.05,5.64-.25.12-.43-.11-.29-.25,1.52-1.52,2.62-3.2,3.12-6.02.21-1.21.3-2.71.32-4.57h-1.27c-.32,0-.37-.34-.68-.93h1.96c0-1.29-.04-2.75-.05-4.36l1.11.21c.21.04.32.16.32.23,0,1.41,0,2.71-.02,3.91h.8c.32,0,.54-.12.8-.43l1.07.38c.82.29.36.73.36,1.04Z"/>
        <path class="cls-1" d="M57.18,31.56v6.98c0,.66-.55,1.04-1.3.86v-7.37c-.48.16-.95.34-1.43.5-.5.18-.57.04-1.27-1,.57-.09,1.09-.18,1.55-.23,1.05-1.5,2.23-3.41,3.03-5.43l.75.54c.39.27.46.39.34.57-.68.98-2.05,2.91-3.3,4.2.93-.14,1.68-.27,2.39-.41l-.3-1.21c-.05-.2.14-.36.29-.21.57.57,1.2,1.27,1.48,1.95.46,1.12-.66,1.93-1.09.77-.09-.25-.18-.54-.25-.8l-.89.32ZM55.33,34.04c-.39,1.2-1.02,3.04-1.57,4.07-.12.23-.37.05-.34-.14.23-1.27.54-3.3.73-4.82l.82.32c.43.16.48.2.36.57ZM53.59,26.38c-.11-.21.05-.36.25-.25.36.21.71.46,1.04.73.43-.95.91-2.25,1.27-3.68l.75.39c.52.27.59.32.43.59-.68,1.11-1.43,2.18-2.09,3,.18.16.34.32.46.48.79.95-.3,2.09-.96.93-.41-.73-.89-1.7-1.14-2.2ZM58.15,35.94c-.2-.98-.32-1.98-.41-2.64-.04-.25.2-.34.32-.16.48.66,1.05,1.36,1.32,2.27.37,1.25-.95,1.98-1.23.54ZM61.79,35.81c-.91,1.25-2.11,2.37-3.7,3.02-.21.09-.46-.07-.16-.32,1.27-1.04,2.04-1.96,2.71-2.98.46-.7.82-1.46.98-2h-1.75c-.27,0-.32-.21-.59-.89h2.04c.34,0,.54-.05.77-.3l.64.52c.36.29.41.36.27.71-.37.91-.75,1.61-1.21,2.25ZM69.3,37.7c-1.07.57-1.25.61-1.57.34-.71-.61-1-.96-1.73-1.93-.55-.71-.93-1.41-1.23-2.16v4.37c0,.45-.04.7-.29.91-.34.29-.73.27-1.11,0-.75-.54-1.71-.88-2.02-1-.14-.05-.09-.27.05-.27.43,0,1.62.04,1.8,0,.18-.04.21-.11.21-.3v-6.87h-1.64c-.07.59-.73.84-1.39.73v-6.94l1.11.23c.18.04.29.12.29.25h.93c.23-.66.37-1.3.55-2.09l.93.46c.39.2.39.27.18.55-.3.37-.64.77-.93,1.07h2.11c.27,0,.46-.11.68-.36h.02l1.12.39c.68.23.25.62.25.93v4.75c0,.57-.68.8-1.39.7v-.68h-1.46v1.7c.21.5.52,1.02.86,1.5.75-.64,1.59-1.5,2.21-2.36l.62.59c.34.32.36.41.16.55-.61.45-1.77,1.12-2.7,1.62.21.29.45.57.66.8.82.89,1.52,1.46,2.66,2.23.18.12.18.2.05.27ZM61.79,25.94v1.57h4.45v-1.57h-4.45ZM66.23,29.92v-1.54h-4.45v1.54h4.45Z"/>
        <path class="cls-1" d="M85.95,25.06v13.34c0,.77-.66,1.04-1.36.93v-1.11h-10.85v.23c0,.68-.59,1.05-1.36.89v-15.78l1.05.23c.25.05.3.16.3.27h10.09c.32,0,.52-.12.77-.41l1.16.34c.71.21.2.75.2,1.07ZM84.6,37.26v-12.28h-10.85v12.28h10.85ZM84.47,29.37c0,.41-.32.57-.89.57h-9c-.23,0-.34-.16-.64-.86h4.53v-.89h-1.3c-.2.41-.75.54-1.29.45v-3.46l1.05.2c.21.05.29.14.3.25h3.12c.32,0,.52-.11.77-.41l1.07.27c.75.2.29.64.29.95v1.57c0,.57-.75.7-1.36.64v-.45h-1.3v.89h3.3c.25,0,.43-.16.73-.48.37.36.61.52.61.77ZM83.38,31.58v4.55c0,.7-.7.88-1.3.8v-.55h-5.89c-.12.48-.64.66-1.27.57v-6.71l1,.2c.25.05.3.12.3.23h5.07c.3,0,.54-.09.79-.39l1.02.27c.79.21.29.73.29,1.04ZM82.08,35.56v-4.07h-5.86v4.07h5.86ZM81.17,33.01v1.59c0,.62-.57.79-1.2.75v-.54h-1.73c-.12.36-.46.57-1.14.48v-3.48l.91.2c.23.05.29.14.29.23h.95c.3,0,.48-.09.73-.36l.84.23c.8.21.36.57.36.89ZM77.24,26.38v1.04h3.89v-1.04h-3.89ZM79.97,34.06v-1.07h-1.68v1.07h1.68Z"/>
      </g>
    </g>
  </g>
</svg>