<?xml version="1.0" encoding="UTF-8"?>
<svg id="_圖層_2" data-name="圖層 2" xmlns="http://www.w3.org/2000/svg" viewBox="0 0 343.82 103.99">
  <defs>
    <style>
      .cls-1 {
        fill: #3b3535;
      }

      .cls-2 {
        stroke: #bbc2dc;
        stroke-width: .83px;
      }

      .cls-2, .cls-3, .cls-4, .cls-5, .cls-6, .cls-7 {
        fill: none;
        stroke-linecap: round;
        stroke-linejoin: round;
      }

      .cls-3 {
        stroke-width: .81px;
      }

      .cls-3, .cls-4, .cls-5, .cls-6, .cls-7 {
        stroke: #3b3535;
      }

      .cls-4 {
        stroke-width: .82px;
      }

      .cls-5 {
        stroke-width: .82px;
      }

      .cls-6 {
        stroke-width: .82px;
      }

      .cls-7 {
        stroke-width: .82px;
      }

      .cls-8, .cls-9 {
        fill: #1a2d7a;
      }

      .cls-9 {
        fill-rule: evenodd;
      }
    </style>
  </defs>
  <g id="_圖層_1-2" data-name="圖層 1">
    <path class="cls-8" d="M307.1.42c20.05,0,36.3,16.25,36.3,36.3s-16.25,36.3-36.3,36.3c-15.08,0-28.02-9.2-33.5-22.29l3.14-4.25c4.12,12.83,16.15,22.12,30.36,22.12,17.61,0,31.88-14.27,31.88-31.88s-14.27-31.87-31.88-31.87c-14.33,0-26.44,9.45-30.46,22.46l-3.16-4.28c5.41-13.26,18.42-22.6,33.62-22.6"/>
    <path class="cls-2" d="M307.1.42c20.05,0,36.3,16.25,36.3,36.3s-16.25,36.3-36.3,36.3c-15.08,0-28.02-9.2-33.5-22.29l3.14-4.25c4.12,12.83,16.15,22.12,30.36,22.12,17.61,0,31.88-14.27,31.88-31.88s-14.27-31.87-31.88-31.87c-14.33,0-26.44,9.45-30.46,22.46l-3.16-4.28c5.41-13.26,18.42-22.6,33.62-22.6Z"/>
    <path class="cls-8" d="M239.54.42c13.82,0,25.83,7.77,31.89,19.18v-.04l12.69,17.18-12.69,17.18v-.52c-6.06,11.41-18.07,19.18-31.89,19.18-15.01,0-27.87-9.16-33.31-22.19l3.12-4.23c4.08,12.78,16.05,22.03,30.19,22.03,17.5,0,31.68-14.19,31.68-31.68s-14.19-31.68-31.68-31.68c-14.25,0-26.31,9.41-30.29,22.36l-3.15-4.26C211.47,9.72,224.42.42,239.54.42"/>
    <path class="cls-2" d="M239.54.42c13.82,0,25.83,7.77,31.89,19.18v-.04l12.69,17.18-12.69,17.18v-.52c-6.06,11.41-18.07,19.18-31.89,19.18-15.01,0-27.87-9.16-33.31-22.19l3.12-4.23c4.08,12.78,16.05,22.03,30.19,22.03,17.5,0,31.68-14.19,31.68-31.68s-14.19-31.68-31.68-31.68c-14.25,0-26.31,9.41-30.29,22.36l-3.15-4.26C211.47,9.72,224.42.42,239.54.42Z"/>
    <path class="cls-8" d="M172.11.42c13.82,0,25.83,7.77,31.89,19.18v-.04l12.69,17.18-12.69,17.18v-.52c-6.06,11.41-18.06,19.18-31.89,19.18-15.01,0-27.87-9.16-33.31-22.19l3.12-4.23c4.08,12.78,16.05,22.03,30.19,22.03,17.5,0,31.68-14.19,31.69-31.68,0-17.5-14.19-31.68-31.69-31.68-14.25,0-26.31,9.41-30.29,22.36l-3.15-4.26C144.04,9.72,156.98.42,172.11.42"/>
    <path class="cls-2" d="M172.11.42c13.82,0,25.83,7.77,31.89,19.18v-.04l12.69,17.18-12.69,17.18v-.52c-6.06,11.41-18.06,19.18-31.89,19.18-15.01,0-27.87-9.16-33.31-22.19l3.12-4.23c4.08,12.78,16.05,22.03,30.19,22.03,17.5,0,31.68-14.19,31.69-31.68,0-17.5-14.19-31.68-31.69-31.68-14.25,0-26.31,9.41-30.29,22.36l-3.15-4.26C144.04,9.72,156.98.42,172.11.42Z"/>
    <path class="cls-8" d="M104.67.42c13.82,0,25.83,7.77,31.89,19.18v-.04l12.69,17.18-12.69,17.18v-.52c-6.06,11.41-18.07,19.18-31.89,19.18-15.01,0-27.87-9.16-33.31-22.19l3.12-4.23c4.08,12.78,16.05,22.03,30.19,22.03,17.5,0,31.68-14.19,31.68-31.68s-14.19-31.68-31.68-31.68c-14.25,0-26.31,9.41-30.29,22.36l-3.15-4.26C76.6,9.72,89.55.42,104.67.42"/>
    <path class="cls-2" d="M104.67.42c13.82,0,25.83,7.77,31.89,19.18v-.04l12.69,17.18-12.69,17.18v-.52c-6.06,11.41-18.07,19.18-31.89,19.18-15.01,0-27.87-9.16-33.31-22.19l3.12-4.23c4.08,12.78,16.05,22.03,30.19,22.03,17.5,0,31.68-14.19,31.68-31.68s-14.19-31.68-31.68-31.68c-14.25,0-26.31,9.41-30.29,22.36l-3.15-4.26C76.6,9.72,89.55.42,104.67.42Z"/>
    <path class="cls-9" d="M36.71,4.84c-17.6,0-31.88,14.27-31.88,31.87s14.27,31.88,31.88,31.88,31.88-14.27,31.88-31.88S54.32,4.84,36.71,4.84M36.71.42c13.9,0,25.98,7.82,32.08,19.3v-.04l12.77,17.28-12.77,17.28v-.52c-6.1,11.48-18.17,19.3-32.08,19.3C16.67,73.01.42,56.76.42,36.71S16.67.42,36.71.42Z"/>
    <path class="cls-2" d="M36.71,4.84c-17.6,0-31.88,14.27-31.88,31.87s14.27,31.88,31.88,31.88,31.88-14.27,31.88-31.88S54.32,4.84,36.71,4.84ZM36.71.42c13.9,0,25.98,7.82,32.08,19.3v-.04l12.77,17.28-12.77,17.28v-.52c-6.1,11.48-18.17,19.3-32.08,19.3C16.67,73.01.42,56.76.42,36.71S16.67.42,36.71.42Z"/>
    <path class="cls-7" d="M309.23,36.2c-.1.13-.17.27-.25.46-.06.18-.1.44-.11.98"/>
    <line class="cls-7" x1="308.82" y1="42.72" x2="308.82" y2="42.92"/>
    <line class="cls-7" x1="316.59" y1="28.65" x2="298.17" y2="28.6"/>
    <line class="cls-7" x1="308.82" y1="42.92" x2="305.92" y2="45.19"/>
    <line class="cls-7" x1="305.92" y1="45.19" x2="305.95" y2="37.5"/>
    <path class="cls-7" d="M305.95,37.5c.02-.6-.25-1.23-.9-1.81"/>
    <line class="cls-7" x1="305.06" y1="35.69" x2="298.17" y2="28.6"/>
    <line class="cls-7" x1="316.59" y1="28.65" x2="309.23" y2="36.2"/>
    <line class="cls-7" x1="308.87" y1="37.64" x2="308.82" y2="42.72"/>
    <path class="cls-1" d="M287.56,95.9v1.39h-1.71v.62h1.71v.9c0,.35,0,.72-.04,1.1h-2.14v.64h2.05c-.23,1.07-.8,2.15-2.34,2.91.15.12.38.37.46.51,1.65-.91,2.29-2.17,2.52-3.42h2.84v-.64h-.75v-2.62h-1.95v-1.39h-.65M289.52,99.9h-1.35c.03-.38.04-.74.04-1.1v-.9h1.31v2ZM288.36,101.02c.65.92,1.48,2.16,1.87,2.87l.59-.33c-.42-.72-1.27-1.92-1.91-2.81l-.55.27ZM284.66,97.51c.26.52.54,1.21.65,1.63l.49-.24c-.1-.41-.4-1.08-.67-1.59l-.46.2ZM283.2,97.58c-.06.71-.22,1.67-.45,2.24l.51.18c.24-.64.39-1.65.44-2.36l-.5-.07ZM283.98,95.9v8.02h.65v-8.02h-.65Z"/>
    <path class="cls-1" d="M291.76,100.74c.07-.06.3-.12.51-.12h.85c-.27,1.36-.85,2.32-1.63,2.87.13.09.35.31.45.45.42-.31.79-.75,1.1-1.32.69.99,1.8,1.17,3.57,1.17.96,0,2.07-.02,2.89-.07.03-.17.11-.48.22-.62-.9.09-2.18.12-3.1.12-1.65,0-2.76-.14-3.32-1.13.22-.54.39-1.18.5-1.9l-.3-.11h-.11s-.92,0-.92,0c.47-.59,1.11-1.51,1.46-2.02l-.44-.2-.11.05h-1.74v.55h1.34c-.36.53-.85,1.23-1.04,1.42-.15.17-.29.23-.42.26.07.13.2.44.24.59M296.39,95.91v.9h-2.33v.57h2.33v.72h-1.97v2.16h1.68c-.53.74-1.43,1.45-2.25,1.79.14.12.33.34.43.5.74-.38,1.54-1.06,2.11-1.8v2.04h.64v-2c.76.51,1.55,1.15,1.98,1.6l.44-.47c-.48-.47-1.4-1.14-2.2-1.66h1.84v-2.16h-2.06v-.72h2.43v-.57h-2.43v-.9h-.64ZM297.03,98.62h1.43v1.12h-1.43v-1.12ZM295.02,98.62h1.37v1.12h-1.37v-1.12ZM291.95,96.19c.36.44.81,1.04,1.03,1.41l.51-.34c-.22-.37-.66-.92-1.05-1.36l-.5.29Z"/>
    <path class="cls-1" d="M305.01,102.1c.41.17.89.45,1.13.68l.32-.38c-.19-.17-.53-.37-.86-.52h2.02v-2.12h-3.75v2.12h1.36l-.21.22M305.97,100.15h1.08v.5h-1.08v-.5ZM304.4,100.15h1.05v.5h-1.05v-.5ZM305.97,101h1.08v.5h-1.08v-.5ZM304.4,101h1.05v.5h-1.05v-.5ZM303.66,98.25l.03.46,1.04-.09v.03c0,.51.13.74.71.74h1.36c.26,0,.55,0,.68-.04-.03-.14-.03-.29-.06-.44-.14.03-.47.04-.65.04h-1.19c-.22,0-.25-.08-.25-.3v-.15l1.52-.13-.03-.38-1.49.11v-.34h2.22c-.06.24-.12.48-.17.65l.51.11c.13-.3.26-.78.36-1.19l-.41-.1-.1.03h-2.31v-.46h2.29v-.44h-2.29v-.48h-.62v1.38h-2.02v2.02c0,1.24-.08,2.98-.86,4.22.14.07.39.26.5.37.82-1.32.95-3.26.95-4.59v-1.54h1.37v.4l-1.07.08ZM303.78,102.21c-.11.47-.35.96-.72,1.23l.43.34c.43-.33.65-.89.78-1.4l-.49-.17ZM300.45,103.47l.59.35c.38-.8.82-1.88,1.14-2.79l-.52-.34c-.36.98-.86,2.11-1.21,2.78ZM300.28,98.81c.48.25,1.12.64,1.44.86l.38-.53c-.33-.22-.97-.57-1.44-.8l-.38.47ZM306.88,102.39c.41.38.83.91.99,1.27l.46-.26c-.17-.38-.61-.89-1.03-1.26l-.43.24ZM300.65,96.46c.45.28,1.07.69,1.38.94l.39-.52c-.32-.23-.94-.61-1.38-.87l-.39.45ZM304.58,102.3v.83c0,.53.15.67.8.67h1.06c.46,0,.63-.17.68-.86-.16-.04-.37-.11-.48-.2-.03.52-.06.58-.28.58h-.92c-.27,0-.32-.03-.32-.19v-.83h-.54Z"/>
    <path class="cls-1" d="M311.2,95.9c-.53.92-1.43,1.81-2.32,2.36.14.11.38.36.49.48.33-.24.68-.52,1.01-.85v1.88h.63v-2.56c.3-.36.57-.73.79-1.11l-.6-.22M313.05,95.91c.03.52.13,1.01.28,1.46l-1.85.17.07.56,1.99-.18c.54,1.15,1.45,1.88,2.5,1.88.59,0,.84-.24.93-1.19-.17-.04-.39-.16-.52-.27-.05.62-.12.84-.38.84-.71,0-1.38-.49-1.83-1.32l2.66-.24-.07-.55-2.84.25c-.16-.41-.26-.88-.3-1.4h-.65ZM310.95,103.81c.18-.11.47-.21,2.71-.74-.02-.14-.03-.38-.03-.55l-1.95.44v-1.24c.51-.28.99-.59,1.36-.93.67,1.5,1.87,2.46,3.64,2.89.09-.18.26-.44.41-.58-.85-.17-1.56-.47-2.15-.89.5-.24,1.09-.58,1.55-.91l-.51-.38c-.38.28-.97.66-1.47.93-.33-.31-.6-.67-.81-1.07h3.23v-.58h-7.78v.58h3.03c-.85.59-2.1,1.1-3.19,1.35.12.12.3.35.38.5.54-.15,1.13-.36,1.69-.61v.8c0,.32-.19.41-.33.46.09.12.19.38.22.52ZM312.33,99.22c.23.3.49.72.6.98l.6-.28c-.11-.25-.38-.64-.64-.92l-.57.23ZM314.56,96.26c.44.24.99.59,1.27.85l.42-.36c-.29-.24-.85-.58-1.29-.79l-.39.31Z"/>
    <path class="cls-1" d="M322.15,98.25h2.21v.87h-2.21v-.87M319.38,98.25h2.09v.87h-2.09v-.87ZM322.13,100.53c0-.17.02-.35.02-.53v-.36h2.21v.89h-2.23ZM319.38,99.64h2.09v.35c0,.18,0,.37-.02.54h-2.07v-.89ZM319.59,101.15l-.56.23c.3.51.66.91,1.09,1.23-.53.31-1.28.56-2.32.75.14.15.31.43.39.58,1.13-.24,1.95-.57,2.53-.95,1.2.64,2.81.84,4.84.92.03-.22.16-.5.28-.65-1.95-.05-3.46-.18-4.59-.69.45-.45.69-.95.79-1.49h2.96v-3.38h-2.86v-.74h3.4v-.59h-7.59v.59h3.51v.74h-2.71v3.38h2.61c-.1.42-.31.81-.71,1.16-.42-.28-.78-.63-1.06-1.08Z"/>
    <path class="cls-1" d="M331.5,100.42c-.03.31-.07.6-.12.86h-1.1v-2.76h1.45c-.28.64-.77,1.22-1.34,1.6.12.07.34.24.44.32.33-.25.67-.59.94-.99.47.3.97.68,1.23.95l.31-.38c-.28-.27-.83-.66-1.3-.94.09-.15.17-.31.23-.46l-.4-.1h1.51v2.76h-1.34c.05-.27.1-.56.12-.86h-.64M328.99,101.28v.55h2.22c-.32.79-.99,1.31-2.47,1.6.12.12.28.35.33.51,1.72-.38,2.46-1.06,2.81-2.1h2.6v-.55h-.56v-3.31h-1.62c.24-.36.51-.79.68-1.18l-.39-.26-.1.03h-1.34c.1-.19.18-.38.26-.58l-.61-.1c-.3.79-.86,1.75-1.71,2.49.12.09.31.29.4.42l.24-.23v2.71h-.74ZM330.85,97.1h1.32c-.14.31-.32.63-.51.87h-1.4c.22-.28.42-.58.59-.87ZM327.52,95.9v1.76h-1.03v.61h1.03v1.88c-.43.15-.81.27-1.13.37l.17.64.95-.34v2.29c0,.11-.03.15-.14.15-.1,0-.42,0-.78,0,.09.18.17.47.19.64.52,0,.86-.02,1.06-.13.21-.1.29-.3.29-.65v-2.51l.93-.34-.1-.59-.83.29v-1.68h.88v-.61h-.88v-1.76h-.63ZM332.06,102.29c.69.51,1.6,1.23,2.05,1.66l.43-.41c-.47-.42-1.4-1.11-2.08-1.6l-.4.35Z"/>
    <path class="cls-4" d="M243.23,38.34c.39-.24.65-.43.97-.7.26-.28.46-.54.7-.93.12-.27.22-.57.3-.92.05-.38.05-.74.03-1.11-.06-.35-.18-.77-.3-1.07-.18-.36-.38-.65-.61-.92-.26-.25-.57-.5-.92-.71-.32-.15-.71-.3-1.01-.38-.37-.06-.72-.08-1.08-.06-.35.05-.62.11-.91.2l-.88.39"/>
    <path class="cls-4" d="M231.23,30.73c-.17.57-.21.77-.25,1.06,0,.49.06,1.02.19,1.52.12.34.27.67.5,1.06.3.39.49.59.71.8.43.33.88.58,1.16.71.23.09.75.24,1.32.33.39.02.76,0,1.11-.03"/>
    <path class="cls-4" d="M234.19,27.83c.66-.12.89-.14,1.16-.14.31.02.62.07.93.13.33.09.81.28,1.12.44.26.16.49.33.71.51.22.22.43.44.63.71.23.34.45.8.55,1.07.1.35.22.98.24,1.2-.02.64-.04.84-.13,1.29-.12.39-.2.67-.23.83"/>
    <path class="cls-4" d="M240.79,27.87c-.08.11-.12.24-.28,1.47-.04.12-.09.19-.2.27l-1.27.4"/>
    <path class="cls-4" d="M235.96,36.19c.49-.1.6-.1.67-.07.07.04.19.15.84.86"/>
    <path class="cls-4" d="M245.12,45.33c.37.38.52.5.69.6.22.09.48.15.71.18.23,0,.44-.04.66-.1.19-.08.41-.21.55-.33.16-.18.3-.38.4-.57.08-.2.13-.37.16-.69-.01-.18-.04-.36-.09-.55-.07-.17-.2-.39-.38-.64l-1.15-1.22"/>
    <path class="cls-4" d="M236.18,29.9c.36.4.44.54.47.61.01.15,0,.41-.06.84-.07.26-.16.47-.27.71-.11.18-.25.36-.41.54-.19.17-.41.33-.78.54-.41.15-.63.19-.9.23-.14,0-.27-.02-.35-.05-.08-.05-.47-.42-1.17-1.12"/>
    <line class="cls-4" x1="234.19" y1="27.83" x2="236.18" y2="29.9"/>
    <line class="cls-4" x1="240.79" y1="27.87" x2="240.84" y2="27.84"/>
    <line class="cls-4" x1="240.84" y1="27.84" x2="242.56" y2="27.85"/>
    <line class="cls-4" x1="242.56" y1="27.85" x2="242.62" y2="27.89"/>
    <line class="cls-4" x1="242.62" y1="27.89" x2="242.68" y2="27.95"/>
    <line class="cls-4" x1="242.68" y1="27.95" x2="242.97" y2="29.51"/>
    <line class="cls-4" x1="242.97" y1="29.51" x2="244.75" y2="30.3"/>
    <line class="cls-4" x1="244.75" y1="30.3" x2="244.82" y2="30.3"/>
    <line class="cls-4" x1="244.82" y1="30.3" x2="246.1" y2="29.45"/>
    <path class="cls-4" d="M246.1,29.45s.09,0,.13.02"/>
    <line class="cls-4" x1="246.23" y1="29.47" x2="247.52" y2="30.72"/>
    <line class="cls-4" x1="246.52" y1="32.12" x2="247.3" y2="33.96"/>
    <line class="cls-4" x1="246.52" y1="32.12" x2="246.53" y2="32.08"/>
    <line class="cls-4" x1="246.53" y1="32.08" x2="247.52" y2="30.72"/>
    <line class="cls-4" x1="248.86" y1="34.19" x2="247.3" y2="33.96"/>
    <line class="cls-4" x1="248.91" y1="36.03" x2="248.86" y2="34.19"/>
    <line class="cls-4" x1="247.28" y1="36.38" x2="246.5" y2="38.17"/>
    <line class="cls-4" x1="247.28" y1="36.38" x2="248.91" y2="36.03"/>
    <line class="cls-4" x1="247.5" y1="39.53" x2="246.5" y2="38.17"/>
    <line class="cls-4" x1="247.5" y1="39.53" x2="245.99" y2="41.28"/>
    <line class="cls-4" x1="237.47" y1="36.98" x2="245.12" y2="45.33"/>
    <path class="cls-4" d="M247.1,44.23c0,.18-.06.33-.19.46-.13.13-.28.19-.46.19s-.33-.06-.46-.19c-.13-.13-.19-.28-.19-.46s.06-.33.19-.46c.13-.13.28-.19.46-.19s.33.06.46.19c.12.13.19.28.19.46Z"/>
    <line class="cls-4" x1="246.59" y1="44.88" x2="246.7" y2="44.86"/>
    <line class="cls-4" x1="246.68" y1="42.02" x2="239.16" y2="33.88"/>
    <line class="cls-4" x1="232.7" y1="32.18" x2="231.23" y2="30.73"/>
    <path class="cls-1" d="M224.03,101.14c.16-.09.44-.16,2.44-.46.04.16.08.31.1.43l.51-.19c-.09-.45-.36-1.18-.64-1.74l-.46.16c.12.26.24.58.35.87l-1.54.21c.71-.84,1.4-1.88,1.96-2.91l-.52-.31c-.19.42-.43.84-.66,1.22l-.93.08c.49-.66.97-1.52,1.34-2.35l-.57-.24c-.35.95-.95,1.95-1.14,2.21-.18.27-.33.45-.48.48.07.16.17.45.19.57.13-.05.31-.1,1.25-.21-.32.49-.6.86-.74,1.02-.26.32-.45.55-.64.59.07.16.17.45.19.57M229.51,101.49v1.2h-1.29v-1.2h1.29ZM229.51,99.18h-1.29v-1.11h1.29v1.11ZM228.31,95.94c-.29,1-.87,2.28-1.55,3.09.1.14.25.42.32.58.18-.22.37-.46.53-.72v5.04h.61v-.64h3.52v-.61h-1.63v-1.2h1.36v-.59h-1.36v-1.13h1.34v-.59h-1.34v-1.11h1.51v-.59h-3.23c.22-.45.4-.92.55-1.35l-.63-.18ZM229.51,99.77v1.13h-1.29v-1.13h1.29ZM226.08,101.4c.19.54.41,1.25.5,1.71l.48-.17c-.1-.45-.31-1.14-.52-1.68l-.45.14ZM224.18,101.51c-.09.71-.21,1.49-.42,2.02.13.04.38.13.51.19.17-.55.34-1.37.44-2.12l-.52-.1ZM225.11,101.58c.1.59.2,1.36.22,1.88l.51-.12c-.03-.51-.14-1.27-.25-1.86l-.48.1ZM229.2,96.17c.21.39.46.92.58,1.26l.58-.27c-.12-.32-.38-.83-.6-1.21l-.55.23Z"/>
    <path class="cls-1" d="M238.54,95.9v1.54h.59v-.48h1.34v-.51h-1.34v-.54h-.59M238,100.12v.46h-1.21v-.46h1.21ZM238,98.91h-1.21v-.45h1.21v.45ZM238,99.3v.44h-1.21v-.44h1.21ZM237.79,97.45c.07.17.14.38.2.58h-1.15c.1-.19.17-.39.25-.59h.56v-1.54h-.59v.53h-1.42v.52h1.42v.46l-.51-.15c-.24.72-.66,1.39-1.15,1.84.11.12.31.38.38.49.16-.16.31-.34.45-.54v2.14h.56v-.17h3.68v-.44h-1.91v-.46h1.48v-.38h-1.48v-.44h1.48v-.39h-1.48v-.45h1.72v-.44h-1.64c-.07-.22-.17-.5-.27-.72l-.58.15ZM235.75,101.39v.48h.99l-.28.1c.27.36.63.67,1.05.94-.65.24-1.37.41-2.09.51.1.13.24.37.3.52.82-.14,1.65-.36,2.37-.69.65.31,1.4.55,2.17.68.08-.16.24-.39.38-.52-.68-.1-1.34-.26-1.93-.49.58-.35,1.06-.79,1.36-1.35l-.38-.2-.1.03h-3.83ZM239.16,101.87c-.27.31-.64.56-1.06.78-.42-.22-.78-.48-1.04-.78h2.09ZM233.42,101.4h1.32v1.45h-1.32v-1.45ZM232.85,100.85v2.97h.57v-.42h1.88v-2.55h-2.45ZM233.47,96.13c.24.35.52.86.65,1.17l.52-.31c-.14-.31-.42-.78-.67-1.13l-.5.26ZM232.5,97.38v.54h3.09v-.54h-3.09ZM232.86,99.69v.51h2.43v-.51h-2.43ZM232.86,98.53v.52h2.43v-.52h-2.43Z"/>
    <path class="cls-1" d="M242.99,97.27c.27.25.62.6.79.83l.44-.38c-.17-.2-.47-.49-.72-.72h1.68v-.53h-2.25c.09-.16.17-.31.24-.47l-.58-.17c-.3.68-.8,1.34-1.35,1.79.14.09.37.32.46.43.31-.28.62-.64.9-1.04h.74l-.33.26M246.81,97.31c.3.24.66.59.84.81l.45-.39c-.18-.21-.53-.5-.81-.72h1.93v-.52h-2.64c.08-.17.14-.33.2-.5l-.6-.15c-.24.69-.66,1.35-1.18,1.78.15.09.4.28.51.38.28-.26.56-.61.79-.99h.9l-.38.31ZM248.1,98.12h-2.56v2.24h2.56v2.8c0,.13-.04.17-.17.17-.14,0-.6,0-1.09,0,.09.17.17.42.2.58.65,0,1.09,0,1.35-.1.24-.1.33-.29.33-.65v-5.04h-.62ZM246.14,99.04v-.49h1.95v.49h-1.95ZM246.14,99.44h1.95v.5h-1.95v-.5ZM243.62,100.81v2.71h.59v-.32h2.64v-2.39h-3.24ZM244.22,102.79v-.58h2.06v.58h-2.06ZM244.22,101.23h2.06v.57h-2.06v-.57ZM241.74,98.12v5.79h.6v-3.55h2.47v-2.24h-3.07ZM242.34,99.94v-.5h1.87v.5h-1.87ZM242.34,98.55h1.87v.49h-1.87v-.49Z"/>
    <path class="cls-1" d="M251.83,95.93c-.43,1.32-1.15,2.63-1.94,3.48.13.15.32.49.38.65.24-.28.48-.59.71-.94v4.79h.63v-5.86c.32-.62.61-1.28.84-1.95l-.62-.17M255.48,98.24h1.43v.89h-1.43v-.89ZM253.3,98.24h1.54v.89h-1.54v-.89ZM255.48,99.63h1.43v.91h-1.44v-.47s0-.44,0-.44ZM253.3,99.63h1.54v.91h-1.54v-.91ZM252.69,97.72v3.32h2.09c-.08.45-.24.89-.59,1.27-.5-.28-.89-.63-1.17-1.05l-.57.2c.32.5.74.92,1.26,1.25-.41.28-.99.52-1.77.7.13.13.31.38.39.54.86-.24,1.49-.55,1.95-.92.92.45,2.07.72,3.39.84.08-.18.24-.45.39-.61-1.28-.08-2.42-.3-3.32-.67.39-.47.58-1,.67-1.55h2.14v-3.32h-2.07v-.73h2.37v-.59h-5.4v.59h2.38v.73h-2.15Z"/>
    <path class="cls-5" d="M181.15,32.11c.15-.03.23-.07.39-.18.11-.15.17-.31.19-.53,0-1.84,0-1.98-.05-2.13-.09-.15-.15-.22-.22-.28-.1-.05-.23-.09-.38-.12"/>
    <path class="cls-5" d="M165.5,28.87c-1.47,0-1.72.02-1.86.07-.14.09-.26.24-.31.36-.03.2-.04,1.01-.04,2.18.01.11.04.23.1.34.07.1.19.2.33.26.13.02.37.03.72.03"/>
    <path class="cls-5" d="M180.65,39.96c-.54.61-.73.82-.96,1-.3.19-.67.37-1.04.48-.22.04-.44.06-.81.06-.44-.07-.8-.19-1.17-.37-.38-.26-.66-.52-.91-.82-.12-.19-.27-.47-.46-.83"/>
    <path class="cls-5" d="M175.3,39.47c-.32.6-.52.91-.77,1.2-.15.14-.37.32-.74.54-.22.1-.45.18-.67.24-.22.04-.66.07-1.1.03-.22-.05-.44-.11-.66-.2-.22-.11-.59-.35-.88-.6-.26-.3-.46-.59-.78-1.21"/>
    <path class="cls-5" d="M169.68,39.45c-.25.53-.4.8-.64,1.1-.3.3-.64.54-1.02.73-.41.14-.81.21-1.21.21-.41-.05-.79-.15-1.18-.32-.32-.2-.62-.44-.79-.63l-.48-.59"/>
    <line class="cls-5" x1="180.72" y1="32.12" x2="180.65" y2="39.96"/>
    <line class="cls-5" x1="175.18" y1="39.24" x2="175.31" y2="39.2"/>
    <path class="cls-5" d="M175.31,39.2s0,.08,0,.07"/>
    <line class="cls-5" x1="175.3" y1="39.27" x2="175.3" y2="39.34"/>
    <line class="cls-5" x1="175.3" y1="39.34" x2="175.3" y2="38.72"/>
    <line class="cls-5" x1="169.69" y1="38.68" x2="169.69" y2="39.42"/>
    <line class="cls-5" x1="164.44" y1="32.12" x2="181.15" y2="32.11"/>
    <line class="cls-5" x1="164.37" y1="39.95" x2="164.3" y2="32.12"/>
    <line class="cls-5" x1="164.3" y1="44.92" x2="164.3" y2="39.87"/>
    <line class="cls-5" x1="181.07" y1="28.87" x2="165.5" y2="28.87"/>
    <line class="cls-5" x1="180.72" y1="39.6" x2="180.72" y2="44.92"/>
    <path class="cls-1" d="M159.05,101.67h2.5v.82h-2.5v-.82M158.43,101.18v2.23h.62v-.44h3.09v-1.8h-3.71ZM156.82,100.11v3.8h.63v-3.25h5.78v2.57c0,.1-.04.13-.15.13s-.51,0-.89,0c.08.14.17.34.21.5.56,0,.93,0,1.17-.08.24-.09.31-.23.31-.55v-3.12h-7.06ZM159.83,96.02l.25.79h-3.59v.58h7.66v-.58h-3.35c-.1-.28-.23-.65-.35-.93l-.63.15ZM157.82,97.87v1.75h5.11v-1.75h-5.11ZM158.48,98.35h3.78v.79h-3.78v-.79Z"/>
    <path class="cls-1" d="M168.48,96c.12.21.25.47.36.71h-3.41v1.59h.64v-.99h5.98v.99h.67v-1.59h-3.12c-.1-.27-.28-.6-.45-.86l-.67.16M167.31,101c.67-.45,1.28-.99,1.78-1.58.58.65,1.21,1.15,1.89,1.58h-3.67ZM167.26,103.05v-1.47h3.6v1.47h-3.6ZM169.02,98.48c-.83,1.29-2.38,2.38-4,2.98.16.14.33.37.43.52.4-.17.79-.35,1.17-.57v2.51h.64v-.3h3.6v.26h.66v-2.58c.36.2.74.39,1.13.57.09-.19.27-.41.43-.55-1.41-.56-2.66-1.25-3.65-2.37l.16-.23-.57-.25ZM169.83,98.1c.8.5,1.79,1.25,2.26,1.75l.47-.44c-.5-.5-1.5-1.21-2.29-1.68l-.44.38ZM167.59,97.71c-.5.64-1.32,1.26-2.11,1.65.14.11.37.38.46.5.79-.45,1.69-1.18,2.27-1.95l-.62-.2Z"/>
    <path class="cls-1" d="M176.24,98.43v.63h1.29c-.13.7-.33,1.52-.49,2.06h3.33c-.11,1.27-.24,1.84-.45,2.01-.1.08-.23.09-.44.09-.26,0-.99,0-1.7-.07.14.17.24.44.25.63.67.03,1.32.04,1.65.03.37,0,.58-.07.79-.27.3-.28.44-.99.58-2.73.02-.1.03-.3.03-.3h-3.23c.1-.45.22-.97.31-1.44h3.62v-.63h-5.56M174.09,103.37l.55.45c.51-.81,1.13-1.9,1.59-2.83l-.48-.43c-.51.99-1.2,2.14-1.66,2.81ZM173.8,98.88c.53.29,1.26.71,1.61.95l.37-.54c-.38-.24-1.11-.64-1.62-.89l-.36.48ZM174.21,96.49c.54.29,1.28.72,1.65.98l.38-.54c-.38-.24-1.13-.64-1.67-.92l-.37.48ZM176.84,96.45v.63h4.35v-.63h-4.35Z"/>
    <path class="cls-1" d="M182.56,103.2v.51h7.92v-.51h-3.66v-.51h2.95v-.46h-2.95v-.48h2.76v-2.19h-6.04v2.19h2.64v.48h-2.89v.46h2.89v.51h-3.62M186.82,99.97h2.11v.49h-2.11v-.49ZM184.16,99.97h2.02v.49h-2.02v-.49ZM186.82,100.85h2.11v.51h-2.11v-.51ZM184.16,100.85h2.02v.51h-2.02v-.51ZM182.61,98.67v.5h7.83v-.5h-7.83ZM183.7,96.18v2.12h5.63v-2.12h-5.63ZM184.33,96.57h4.34v.47h-4.34v-.47ZM184.33,97.43h4.34v.48h-4.34v-.48Z"/>
    <path class="cls-6" d="M110.64,28.64c.98.88,1.78,1.9,2.39,3.07.61,1.17,1,2.4,1.16,3.71"/>
    <line class="cls-6" x1="99.84" y1="33.81" x2="95.86" y2="33.81"/>
    <line class="cls-6" x1="99.84" y1="40.03" x2="99.84" y2="33.81"/>
    <line class="cls-6" x1="99.84" y1="40.03" x2="95.86" y2="40.03"/>
    <line class="cls-6" x1="95.86" y1="40.03" x2="95.86" y2="33.81"/>
    <line class="cls-6" x1="104.73" y1="44.41" x2="104.72" y2="29.53"/>
    <line class="cls-6" x1="104.72" y1="44.34" x2="99.84" y2="40.03"/>
    <line class="cls-6" x1="104.65" y1="29.6" x2="99.84" y2="33.81"/>
    <path class="cls-6" d="M108.56,30.82c.43.38.82.79,1.16,1.25.34.46.63.95.87,1.47.24.52.42,1.06.54,1.62.12.56.19,1.12.19,1.7,0,.57-.05,1.14-.17,1.7-.12.56-.29,1.1-.52,1.63s-.52,1.02-.85,1.48c-.33.46-.72.89-1.14,1.27"/>
    <path class="cls-6" d="M106.78,33.22c.26.24.49.49.7.78.21.28.38.59.52.91s.25.65.32.99c.07.34.11.69.1,1.04,0,.35-.04.69-.11,1.04-.08.34-.18.67-.33.99-.14.32-.32.62-.53.9-.21.28-.44.54-.7.77"/>
    <path class="cls-6" d="M114.19,35.41c.24,2.14.03,4.24-1.01,6.4"/>
    <path class="cls-6" d="M113.18,41.81c-.62,1.28-1.46,2.4-2.51,3.35"/>
    <path class="cls-1" d="M92.57,95.91c0,.69,0,1.57-.13,2.5h-3.35v.67h3.24c-.35,1.66-1.22,3.35-3.4,4.29.18.14.39.38.5.54,2.13-.98,3.07-2.65,3.5-4.34.68,1.99,1.81,3.53,3.5,4.34.11-.19.32-.46.49-.61-1.69-.71-2.84-2.29-3.45-4.22h3.31v-.67h-3.63c.12-.92.13-1.79.14-2.5h-.71"/>
    <path class="cls-1" d="M102.37,100.47v.69c0,.46-.1,1-.69,1.43.11.08.33.27.41.38.67-.5.82-1.2.82-1.78v-.2h.9v1.22c0,.45.12.57.56.57h.5c.33,0,.46-.17.5-.78-.13-.03-.31-.09-.41-.17-.03.48-.05.58-.16.58h-.34c-.12,0-.14-.03-.14-.19v-1.75h-1.95M100.18,100.97h1.03c-.15.48-.35.89-.62,1.24-.2-.28-.38-.63-.51-1.07l.1-.17ZM100.14,99.78c-.26.81-.75,1.54-1.33,2.04.12-.77.16-1.54.16-2.16v-1.62h2.24v.57l-1.77.11.03.45,1.75-.11v.15c0,.58.17.81.91.81h2.16c.37,0,.75,0,.92-.04-.03-.14-.04-.32-.06-.49-.18.03-.65.05-.91.05h-2.03c-.31,0-.36-.08-.36-.32v-.2l2.25-.15-.03-.44-2.22.14v-.52h2.84c-.1.31-.23.62-.34.83l.55.17c.2-.36.43-.92.6-1.42l-.45-.12-.11.03h-3.06v-.57h3v-.5h-3v-.55h-.65v1.61h-2.86v2.14c0,1.15-.07,2.76-.76,3.9.14.07.4.27.51.39.36-.58.58-1.31.7-2.04.12.1.29.27.37.36.2-.18.4-.4.59-.65.14.39.31.72.5.99-.44.43-.98.72-1.57.91.1.11.24.32.3.45.62-.21,1.17-.52,1.62-.96.69.64,1.63.79,2.82.79h2.09c.03-.16.13-.42.22-.56-.37,0-2,.02-2.28,0-1.01,0-1.86-.12-2.48-.65.41-.52.72-1.2.89-2.04l-.34-.1-.1.02h-.98c.09-.18.17-.38.23-.57l-.52-.13Z"/>
    <path class="cls-1" d="M106.3,102.36l.17.66c.77-.25,1.77-.59,2.71-.91l-.11-.64-.96.32v-2.17h.88v-.61h-.88v-1.91h1.01v-.61h-2.72v.61h1.08v1.91h-.99v.61h.99v2.37c-.45.14-.85.26-1.18.36M108.77,103.04v.6h5.66v-.6h-2.33v-1.2h2.03v-.59h-2.03v-1.03h1.91v-3.91h-4.47v3.91h1.88v1.03h-1.99v.59h1.99v1.2h-2.66ZM112.05,96.88h1.34v1.11h-1.34v-1.11ZM110.15,96.88h1.34v1.11h-1.34v-1.11ZM112.05,98.52h1.34v1.13h-1.34v-1.13ZM110.15,98.52h1.34v1.13h-1.34v-1.13Z"/>
    <path class="cls-1" d="M115.13,103.2v.51h7.92v-.51h-3.66v-.51h2.95v-.46h-2.95v-.48h2.76v-2.19h-6.04v2.19h2.64v.48h-2.89v.46h2.89v.51h-3.62M119.38,99.97h2.11v.49h-2.11v-.49ZM116.72,99.97h2.02v.49h-2.02v-.49ZM119.38,100.85h2.11v.51h-2.11v-.51ZM116.72,100.85h2.02v.51h-2.02v-.51ZM115.17,98.67v.5h7.83v-.5h-7.83ZM116.26,96.18v2.12h5.63v-2.12h-5.63ZM116.9,96.57h4.34v.47h-4.34v-.47ZM116.9,97.43h4.34v.48h-4.34v-.48Z"/>
    <path class="cls-3" d="M41.91,43.09c.35-.05.54-.11.77-.21.2-.14.33-.28.46-.48.07-.18.11-.46.07-.73-.08-.23-.23-.45-.37-.58-.14-.09-.36-.19-.61-.27-.69-.18-.88-.25-1.04-.32-.13-.08-.28-.21-.41-.37-.09-.18-.16-.45-.16-.72.05-.18.09-.29.21-.48.08-.09.22-.2.45-.33.17-.06.38-.11.63-.14"/>
    <path class="cls-3" d="M29.8,27.69c-.21,0-.41.03-.73.14-.17.09-.31.19-.45.31-.13.14-.31.42-.39.61-.05.16-.09.45-.09,1.04"/>
    <path class="cls-3" d="M46.4,40.78c0,.3-.03.59-.09.88-.06.29-.14.57-.26.84-.11.27-.25.53-.42.78-.16.25-.35.47-.56.68-.21.21-.44.4-.68.56-.25.16-.5.3-.78.42-.27.11-.55.2-.84.26-.29.06-.58.09-.88.09s-.59-.03-.88-.09c-.29-.06-.57-.14-.84-.26-.27-.11-.53-.25-.78-.42-.25-.16-.47-.35-.68-.56-.21-.21-.4-.44-.56-.68-.16-.24-.3-.51-.42-.78-.11-.27-.2-.55-.26-.84-.06-.29-.09-.58-.09-.88s.03-.59.09-.88c.06-.29.14-.57.26-.84.11-.27.25-.53.42-.78.16-.25.35-.47.56-.68.21-.21.44-.4.68-.56.25-.16.5-.3.78-.42.27-.11.55-.2.84-.26.29-.06.58-.09.88-.09s.59.03.88.09c.29.06.57.14.84.26.27.11.53.25.78.42.25.16.47.35.68.56.21.21.4.44.56.68.16.25.3.51.42.78.11.27.2.55.26.84.06.29.09.58.09.88Z"/>
    <line class="cls-3" x1="41.98" y1="35.94" x2="42" y2="29.33"/>
    <line class="cls-3" x1="41.98" y1="35.94" x2="41.69" y2="36.24"/>
    <line class="cls-3" x1="30.96" y1="33.38" x2="38.71" y2="33.37"/>
    <line class="cls-3" x1="41.9" y1="37.86" x2="41.9" y2="38.46"/>
    <path class="cls-3" d="M40.64,42.21c.11.26.27.46.5.62.23.16.48.24.76.24"/>
    <line class="cls-3" x1="41.91" y1="43.66" x2="41.91" y2="43.09"/>
    <path class="cls-3" d="M43.16,39.31c-.1-.26-.27-.46-.5-.61-.23-.15-.48-.23-.76-.22"/>
    <line class="cls-3" x1="30.96" y1="36.85" x2="36.47" y2="36.85"/>
    <path class="cls-3" d="M42.01,29.33c0-.24-.04-.47-.14-.69-.1-.22-.24-.41-.42-.57-.18-.16-.39-.27-.63-.33-.23-.06-.47-.07-.71-.03"/>
    <line class="cls-3" x1="40.11" y1="27.69" x2="29.8" y2="27.69"/>
    <line class="cls-3" x1="28.15" y1="29.8" x2="28.14" y2="44.43"/>
    <path class="cls-3" d="M28.14,44.43c0,.26.05.5.16.73.11.23.26.43.46.59.2.16.42.27.67.32.25.05.5.05.75-.01"/>
    <line class="cls-3" x1="30.19" y1="46.09" x2="40.36" y2="46.09"/>
    <path class="cls-3" d="M40.36,46.11c.65-.05,1.2-.32,1.65-.79"/>
    <path class="cls-1" d="M21.13,96.34c.56.29,1.23.73,1.56,1.05l.41-.45c-.34-.3-1.03-.72-1.58-.99l-.39.4M20.02,95.91c0,.5.02.99.04,1.47h-3.67v2.45c0,1.13-.08,2.64-.8,3.72.16.08.44.31.55.44.8-1.15.93-2.91.93-4.14v-.06h1.6c-.03,1.5-.08,2.06-.19,2.19-.07.08-.15.1-.28.1-.15,0-.52,0-.92-.04.1.17.17.43.18.61.43.03.83.03,1.06,0,.24-.03.38-.09.52-.25.18-.24.23-.98.27-2.94,0-.09,0-.28,0-.28h-2.24v-1.15h3.04c.1,1.41.31,2.71.65,3.71-.58.66-1.25,1.2-2.02,1.61.14.13.38.4.48.54.67-.4,1.27-.88,1.81-1.46.4.9.92,1.44,1.6,1.44s.92-.44,1.03-1.93c-.17-.06-.42-.21-.57-.36-.05,1.16-.16,1.61-.41,1.61-.45,0-.84-.5-1.16-1.35.65-.84,1.16-1.83,1.54-2.98l-.65-.17c-.28.88-.65,1.68-1.13,2.37-.23-.85-.39-1.88-.49-3.05h2.8v-.64h-2.84c-.03-.48-.03-.97-.03-1.47h-.68Z"/>
    <path class="cls-1" d="M28.01,95.91v1.83h-3.45v.66h2.64c-.64,1.48-1.72,2.9-2.88,3.6.16.13.38.37.48.53,1.27-.86,2.39-2.43,3.07-4.14h.14v3.23h-2.04v.66h2.04v1.63h.69v-1.63h2.03v-.66h-2.03v-3.23h.12c.66,1.71,1.79,3.28,3.08,4.12.12-.18.35-.44.51-.57-1.21-.7-2.31-2.08-2.94-3.55h2.7v-.66h-3.47v-1.83h-.69"/>
    <path class="cls-1" d="M38.35,95.89c-.25,1.55-.69,3.05-1.4,4,.14.11.36.37.45.5.17-.24.33-.51.48-.81.22.78.49,1.49.82,2.12-.51.76-1.2,1.34-2.13,1.77.14.11.37.37.45.49.84-.44,1.5-.99,2.02-1.68.45.69,1,1.26,1.67,1.64.1-.17.31-.4.46-.52-.71-.37-1.28-.95-1.75-1.68.57-.96.92-2.15,1.14-3.61h.5v-.61h-2.42c.13-.48.24-.99.33-1.5l-.61-.1M38.45,98.1h1.46c-.17,1.17-.44,2.16-.86,2.98-.36-.72-.63-1.52-.81-2.37l.21-.61ZM33.92,100.09c.35.34.72.73,1.06,1.13-.49.85-1.13,1.53-1.93,2.02.14.1.38.35.46.47.74-.51,1.37-1.17,1.88-1.99.38.48.7.94.89,1.31l.52-.41c-.24-.42-.64-.95-1.08-1.48.24-.49.45-1.03.62-1.61l-.62-.11c-.11.44-.26.84-.44,1.22-.29-.31-.59-.63-.87-.9l-.49.35ZM34.47,96.11c.25.32.51.76.63,1.06h-1.88v.59h3.97v-.59h-1.98l.48-.22c-.12-.3-.4-.74-.68-1.06l-.54.22ZM35.63,98.23c.39.47.8,1.12.97,1.54l.52-.31c-.17-.42-.6-1.05-1-1.5l-.49.26ZM34.19,97.99c-.28.67-.72,1.39-1.17,1.88.13.09.37.3.46.39.45-.52.95-1.35,1.27-2.11l-.57-.17Z"/>
    <path class="cls-1" d="M47.66,95.9c-.21.47-.6,1.13-.92,1.54l.47.17h-2.82l.47-.24c-.17-.39-.56-.99-.93-1.45l-.56.24c.34.44.71,1.04.88,1.45h-2.26v.58h7.6v-.58h-2.29c.32-.4.7-.98,1.01-1.49l-.65-.22M46.97,103.07v-2.16h1.12v2.16h-1.12ZM45.27,103.07v-2.16h1.08v2.16h-1.08ZM43.57,103.07v-2.16h1.09v2.16h-1.09ZM42.98,100.34v2.73h-1.14v.59h7.95v-.59h-1.08v-2.73h-5.72ZM44.45,98.58c-.54.47-1.64,1.06-2.42,1.35.15.13.31.37.41.51.78-.38,1.87-1.03,2.47-1.54l-.46-.33ZM46.6,99.08c.89.33,2.06.86,2.65,1.2l.34-.53c-.61-.33-1.8-.83-2.67-1.14l-.32.47Z"/>
    <path class="cls-1" d="M53.24,101.67h2.5v.82h-2.5v-.82M52.62,101.18v2.23h.62v-.44h3.09v-1.8h-3.71ZM51,100.11v3.8h.63v-3.25h5.78v2.57c0,.1-.04.13-.15.13s-.51,0-.89,0c.08.14.17.34.21.5.56,0,.93,0,1.17-.08.24-.09.31-.23.31-.55v-3.12h-7.06ZM54.01,96.02l.25.79h-3.59v.58h7.66v-.58h-3.35c-.1-.28-.23-.65-.35-.93l-.63.15ZM52.01,97.87v1.75h5.11v-1.75h-5.11ZM52.66,98.35h3.78v.79h-3.78v-.79Z"/>
  </g>
</svg>